<?xml version="1.0" standalone="no"?>
<!DOCTYPE svg PUBLIC "-//W3C//DTD SVG 1.1//EN" "http://www.w3.org/Graphics/SVG/1.1/DTD/svg11.dtd" >
<svg xmlns="http://www.w3.org/2000/svg">
<metadata>
Created by FontForge 20120731 at Thu May 19 15:27:24 2016
 By admin
</metadata>
<defs>
<font id="iconfont" horiz-adv-x="1024" >
  <font-face 
    font-family="iconfont"
    font-weight="500"
    font-stretch="normal"
    units-per-em="1024"
    panose-1="2 0 6 3 0 0 0 0 0 0"
    ascent="896"
    descent="-128"
    x-height="792"
    bbox="0 -212 1272.2 896.081"
    underline-thickness="50"
    underline-position="-100"
    unicode-range="U+0078-E66E"
  />
<missing-glyph horiz-adv-x="374" 
d="M34 0v682h272v-682h-272zM68 34h204v614h-204v-614z" />
    <glyph glyph-name=".notdef" horiz-adv-x="374" 
d="M34 0v682h272v-682h-272zM68 34h204v614h-204v-614z" />
    <glyph glyph-name=".null" horiz-adv-x="0" 
 />
    <glyph glyph-name="nonmarkingreturn" horiz-adv-x="341" 
 />
    <glyph glyph-name="x" unicode="x" horiz-adv-x="1001" 
d="M281 543q-27 -1 -53 -1h-83q-18 0 -36.5 -6t-32.5 -18.5t-23 -32t-9 -45.5v-76h912v41q0 16 -0.5 30t-0.5 18q0 13 -5 29t-17 29.5t-31.5 22.5t-49.5 9h-133v-97h-438v97zM955 310v-52q0 -23 0.5 -52t0.5 -58t-10.5 -47.5t-26 -30t-33 -16t-31.5 -4.5q-14 -1 -29.5 -0.5
t-29.5 0.5h-32l-45 128h-439l-44 -128h-29h-34q-20 0 -45 1q-25 0 -41 9.5t-25.5 23t-13.5 29.5t-4 30v167h911zM163 247q-12 0 -21 -8.5t-9 -21.5t9 -21.5t21 -8.5q13 0 22 8.5t9 21.5t-9 21.5t-22 8.5zM316 123q-8 -26 -14 -48q-5 -19 -10.5 -37t-7.5 -25t-3 -15t1 -14.5
t9.5 -10.5t21.5 -4h37h67h81h80h64h36q23 0 34 12t2 38q-5 13 -9.5 30.5t-9.5 34.5q-5 19 -11 39h-368zM336 498v228q0 11 2.5 23t10 21.5t20.5 15.5t34 6h188q31 0 51.5 -14.5t20.5 -52.5v-227h-327z" />
    <glyph glyph-name="uniE600" unicode="&#xe600;" 
d="M893 365.5q0 90.5 -35.5 173.5t-95.5 142.5t-142.5 95t-173 35.5t-173.5 -35.5t-142.5 -95t-95 -142.5t-35.5 -173.5t35.5 -173t95 -142.5t142.5 -95.5t173.5 -35.5t173 35.5t142.5 95.5t95.5 142.5t35.5 173zM53 366q0 107 52.5 197.5t143 143t197.5 52.5t198 -52.5
t143.5 -143t52.5 -197.5t-52.5 -198t-143.5 -143.5t-198 -52.5t-197.5 52.5t-143 143.5t-52.5 198zM979 -204l37 37l-236 236l-37 -37z" />
    <glyph glyph-name="uniE601" unicode="&#xe601;" 
d="M512 -212q-139 0 -257 68.5t-186.5 186.5t-68.5 257t68.5 257t186.5 186.5t257 68.5t257 -68.5t186.5 -186.5t68.5 -257t-68.5 -257t-186.5 -186.5t-257 -68.5zM512 761q-94 0 -179 -36.5t-147 -98.5t-98.5 -147t-36.5 -179t36.5 -179t98.5 -147t147 -98.5t179 -36.5
t179 36.5t147 98.5t98.5 147t36.5 179t-36.5 179t-98.5 147t-147 98.5t-179 36.5zM711 65l-199 199l-199 -199l-36 36l199 199l-199 199l36 36l199 -199l199 199l36 -36l-199 -199l199 -199z" />
    <glyph glyph-name="uniE602" unicode="&#xe602;" 
d="M154.5 666.5q-23.5 -23.5 -23.5 -57t23.5 -57.5t56.5 -24t56 24t23 57.5t-23 57t-56 23.5t-56.5 -23.5zM235 584.5q-10 -10.5 -24 -10.5t-24 10.5t-10 25t10 24.5t24 10t24 -10t10 -24.5t-10 -25zM988 354l-1 1l-461 426q-10 10 -23 15t-69.5 10.5t-155.5 5.5
q-100 0 -214 -4h-1l-42 -2l-2 -42q-5 -151 -7 -232q-1 -102 1 -161q1 -33 2.5 -49t8.5 -35t20 -27l457 -436q35 -36 85.5 -36t86.5 36v1l289 328q23 24 38 60.5t13.5 76t-25.5 64.5zM929 184l-289 -327q-22 -23 -53.5 -23t-53.5 23l-463 442q-11 2 -12.5 119.5t2.5 226.5
t5 117q5 0 14 0.5t36.5 1t54.5 1t64 1t69.5 0.5t66.5 -1.5t59 -3t43 -5t22 -8.5l462 -426q19 -26 8.5 -69t-35.5 -69z" />
    <glyph glyph-name="uniE603" unicode="&#xe603;" 
d="M112 786h175v48h-223v-240h48v192zM112 147h-48v-208h223v48h-175v160zM735 834v-48h176v-192h48v240h-224zM911 -13h-176v-48h224v208h-48v-160zM64 354h895v48h-895v-48z" />
    <glyph glyph-name="uniE604" unicode="&#xe604;" 
d="M500.5 -168q-90.5 0 -173.5 35q-80 34 -141.5 95.5t-95.5 141.5q-35 83 -35 173.5t35 173.5q34 80 95.5 141.5t141.5 95.5q83 35 173.5 35t173.5 -35q80 -34 141.5 -95.5t95.5 -141.5q35 -83 35 -173.5t-35 -173.5q-34 -80 -95.5 -141.5t-141.5 -95.5q-83 -35 -173.5 -35
zM500.5 695q-113.5 0 -210 -56t-152.5 -152t-56 -209.5t56 -210t152.5 -152.5t210 -56t210 56t152.5 152.5t56 210t-56 209.5t-152.5 152t-210 56zM613 681h31v-812h-31v812zM75 382h841v-31h-841v31zM199 -33q7 3 18 8t45 23t67 38.5t76.5 54.5t80.5 70.5t73 86.5t59 103z
" />
    <glyph glyph-name="uniE605" unicode="&#xe605;" 
d="M953 456h-328l287 351h-349l-410 -517h308l-390 -497z" />
    <glyph glyph-name="uniE606" unicode="&#xe606;" 
d="M541 270zM257 476q0 103 74 175.5t179 72.5t179.5 -72.5t74.5 -175.5t-74.5 -176t-179.5 -73t-179 73t-74 176v0zM212 476q0 -87 48 -159t126 -107q-131 -37 -219 -140t-102 -237h45q17 148 131.5 249t269 101t269 -101t131.5 -249h45q-14 134 -102 237t-219 140
q78 35 126 107t48 159q0 121 -87.5 206.5t-211 85.5t-211 -85.5t-87.5 -206.5v0zM212 476z" />
    <glyph glyph-name="uniE607" unicode="&#xe607;" horiz-adv-x="1140" 
d="M1029 512q0 31 -22 52.5t-52 21.5h-58q39 37 39 91t-38 91.5t-92 37.5q-90 0 -149 -139q-25 10 -55 10t-55 -10q-59 139 -149 139q-45 0 -80 -27.5t-46 -69.5q18 -4 36 -10q8 31 33 51t57 20q68 0 119 -126q-6 -8 -7 -18q4 1 5 1q-2 0 -5 -3q-1 -1 -1 -2q0 -17 18 -31h-1
q-52 -17 -156 40q-54 29 -102 39.5t-77 7.5t-54.5 -15t-31.5 -18l-11 -11q-5 -6 -4 -13.5t7 -12t13.5 -4t12.5 6.5q3 3 8.5 8t25.5 13.5t44 10t64.5 -8.5t86.5 -35q88 -48 149 -48q10 0 23 2q1 -1 1.5 -2t0.5 -2h57v-147h-371v110q0 16 11 26.5t27 10.5h123q-22 10 -39 19
q-17 10 -36 18h-48q-31 0 -53 -21.5t-22 -52.5v-146h56v-330q0 -31 22 -52.5t52 -21.5h594q31 0 52.5 21.5t21.5 52.5v330h56v146zM584 -1h-279q-15 0 -26 10.5t-11 25.5v331h316v-367zM695 622q0 12 -8 22q51 126 119 126q38 0 65.5 -27t27.5 -65t-27.5 -65t-65.5 -27h-135
q24 16 24 36zM602 604q-11 0 -21 2q-3 5 -8 7q-8 4 -17 -1q-10 5 -10 10q0 8 16.5 13.5t39.5 5.5t39.5 -5.5t16.5 -13t-16.5 -13t-39.5 -5.5zM936 35q0 -15 -11 -25.5t-26 -10.5h-278v367h315v-331zM992 402h-371v147h334q15 0 26 -10.5t11 -26.5v-110zM992 402z" />
    <glyph glyph-name="uniE608" unicode="&#xe608;" 
d="M888.5 185q-42.5 0 -73 30t-30.5 73t30.5 73t73 30t73 -30t30.5 -73t-30.5 -73t-73 -30zM888.5 362q-30.5 0 -52 -21.5t-21.5 -52.5t21.5 -52.5t52 -21.5t52 21.5t21.5 52.5t-21.5 52.5t-52 21.5zM512 185q-43 0 -73 30t-30 73t30 73t73 30t73 -30t30 -73t-30 -73
t-73 -30zM512 362q-31 0 -52.5 -21.5t-21.5 -52.5t21.5 -52.5t52.5 -21.5t52.5 21.5t21.5 52.5t-21.5 52.5t-52.5 21.5zM135.5 185q-42.5 0 -73 30t-30.5 73t30.5 73t73 30t73 -30t30.5 -73t-30.5 -73t-73 -30zM135.5 362q-30.5 0 -52 -21.5t-21.5 -52.5t21.5 -52.5
t52 -21.5t52 21.5t21.5 52.5t-21.5 52.5t-52 21.5z" />
    <glyph glyph-name="uniE609" unicode="&#xe609;" 
d="M955 468l-103 -290q-11 -31 -37.5 -49.5t-58.5 -18.5h-403q-36 0 -64.5 23t-35.5 59l-68 345l-23 104h-75q-9 0 -15.5 6.5t-6.5 15.5t6.5 15.5t15.5 6.5h93l1 -1h1q2 0 4.5 -0.5t4 -1.5t3.5 -2l2 -4q2 -1 3 -3t1 -4q1 0 1 -1v-1l23 -103h663q37 0 58.5 -30.5t9.5 -65.5v0
zM910 508q-8 12 -23 12h-654l63 -320q4 -20 20 -33t37 -13h403q18 0 33.5 10.5t21.5 27.5l103 290q5 14 -4 26v0zM337 63q36 0 62 -25.5t26 -62t-26 -62t-62 -25.5t-62 25.5t-26 62t26 62t62 25.5zM337 -69q18 0 31 13t13 31.5t-13 31t-31 12.5t-31 -12.5t-13 -31t13 -31.5
t31 -13zM725 63q36 0 62 -25.5t26 -62t-26 -62t-62 -25.5t-62 25.5t-26 62t26 62t62 25.5zM725 -69q18 0 31 13t13 31.5t-13 31t-31 12.5t-31 -12.5t-13 -31t13 -31.5t31 -13z" />
    <glyph glyph-name="uniE60A" unicode="&#xe60a;" 
d="M0 652h1024v-64h-1024v64zM0 12h1024v-64h-1024v64zM0 332h1024v-64h-1024v64z" />
    <glyph glyph-name="uniE60B" unicode="&#xe60b;" 
d="M913 -131l-37 575q-1 7 -6.5 12t-12.5 5h-154v77q0 80 -56.5 136.5t-136.5 56.5t-136.5 -56.5t-56.5 -136.5v-77h-153q-8 0 -13.5 -5t-5.5 -12l-40 -579q-1 -8 4.5 -14.5t14.5 -6.5h770q8 0 13.5 5.5t5.5 13.5v6zM355 538q0 64 45.5 109.5t109.5 45.5t109 -45.5
t45 -109.5v-77h-309v77zM145 -118l36 541h136v-44q-20 -11 -20 -34q0 -16 11.5 -27t27.5 -11t27.5 11t11.5 27q0 23 -20 34v44h309v-44q-19 -11 -19 -34q0 -16 11 -27t27 -11t27.5 11t11.5 27q0 23 -19 34v44h136l33 -541h-727z" />
    <glyph glyph-name="uniE60C" unicode="&#xe60c;" horiz-adv-x="1000" 
d="M625 -30h-253v16q0 32 -22.5 54.5t-54 22.5t-54 -22.5t-22.5 -54.5v-16h-161v586h567v-586zM402 2h191v522h-503v-522h98q6 40 36.5 66.5t71 26.5t71 -26.5t35.5 -66.5zM976 -30h-124v16q0 32 -22.5 54.5t-54 22.5t-54 -22.5t-22.5 -54.5v-16h-106v457h201q19 0 53 -32
q26 -26 56 -65q73 -95 73 -131v-229zM883 2h61v197q0 9 -16.5 39t-47.5 70q-28 37 -53 62q-24 23 -33 25h-169v-393h43q6 40 36.5 66.5t71 26.5t71 -26.5t36.5 -66.5zM976 173h-272v180h181l5 -6q34 -41 58 -82q28 -45 28 -66v-26zM736 205h207q-5 16 -22 44q-21 35 -51 72
h-134v-116zM775.5 -122q-44.5 0 -76.5 31.5t-32 76.5t32 77t76.5 32t76.5 -32t32 -77t-32 -76.5t-76.5 -31.5zM775.5 63q-31.5 0 -54 -22.5t-22.5 -54t22.5 -54t54 -22.5t54 22.5t22.5 54t-22.5 54t-54 22.5zM295 -122q-45 0 -76.5 31.5t-31.5 76.5t31.5 77t76.5 32t77 -32
t32 -77t-32 -76.5t-77 -31.5zM295.5 63q-31.5 0 -54 -22.5t-22.5 -54t22.5 -54t54 -22.5t54 22.5t22.5 54t-22.5 54t-54 22.5z" />
    <glyph glyph-name="uniE60D" unicode="&#xe60d;" horiz-adv-x="1284" 
d="M642 67l-383 459h765z" />
    <glyph glyph-name="uniE60E" unicode="&#xe60e;" 
d="M512 -201q102 0 195 39.5t160 106.5t106.5 160t39.5 195t-39.5 195t-106.5 160t-160 106.5t-195 39.5t-195 -39.5t-160 -106.5t-106.5 -160t-39.5 -195t39.5 -195t106.5 -160t160 -106.5t195 -39.5zM512 764q94 0 180.5 -36.5t148.5 -98.5t98.5 -148.5t36.5 -181
t-36.5 -180.5t-98.5 -148t-148.5 -98.5t-180.5 -36.5t-180.5 36.5t-148.5 98.5t-98.5 148t-36.5 180.5t36.5 181t98.5 148.5t148.5 98.5t180.5 36.5zM343 275l260 -259l26 26l-259 259l259 260l-26 26l-260 -259l-26 -27v0z" />
    <glyph glyph-name="uniE60F" unicode="&#xe60f;" 
d="M874.5 172q-8.5 0 -15 -6.5t-6.5 -14.5v-214q0 -9 -6 -15t-15 -6h-640q-9 0 -15 6t-6 15v214q0 8 -6.5 14.5t-15 6.5t-15 -6.5t-6.5 -14.5v-214q0 -26 19 -45t45 -19h640q26 0 45 19t19 45v214q0 8 -6.5 14.5t-15 6.5zM180 224q58 -19 114.5 6t78.5 81q17 -43 54.5 -69.5
t83.5 -26.5h1v0h1q46 0 83.5 26.5t54.5 69.5q22 -56 78.5 -81t114.5 -6q108 34 93 194q-5 43 -32 136q-43 145 -64 162q-13 11 -47 11h-281h-1h-1h-281q-34 0 -47 -11q-21 -17 -64 -162q-27 -93 -32 -136q-15 -160 93 -194zM132 416q4 39 31 129q10 32 22 66.5t19 53.5l8 19
h299h1h1h299q28 -68 49 -139q27 -91 31 -129q7 -55 -8 -96.5t-54 -55.5q-42 -15 -83.5 4t-56.5 61l-28 76v131q0 9 -6 15.5t-15 6.5t-15.5 -6.5t-6.5 -15.5v-168q0 -45 -31 -78t-75 -33h-1v0h-1q-44 0 -75 33t-31 78v168q0 9 -6.5 15.5t-15.5 6.5t-15 -6.5t-6 -15.5v-131
l-28 -76q-15 -42 -56.5 -61t-83.5 -4q-39 14 -54 55.5t-8 96.5z" />
    <glyph glyph-name="uniE610" unicode="&#xe610;" 
d="M664 -29h-401q-61 0 -103.5 43t-42.5 104v200q0 5 3 8t8 3h671q5 0 8 -3t3 -8v-200q0 -61 -43 -104t-103 -43zM139 307v-189q0 -52 36.5 -88t87.5 -36h401q51 0 87.5 36t36.5 88v189h-649zM204 383q-8 0 -11 7l-77 210q-2 5 1 10t9 5h243q42 31 94 31q50 0 94 -31h244
q6 0 9 -5t1 -10l-82 -210q-4 -11 -14.5 -6.5t-6.5 14.5l76 194h-229q-5 0 -8 3q-40 28 -84 28q-46 0 -84 -28q0 -1 -2 -1q-2 -2 -5 -2h-230l72 -194q4 -11 -6 -15h-4zM520 458q-20 0 -35 18t-18 44v2v-1v1v-2q-3 -26 -18 -44t-35 -18q20 0 35 -17.5t18 -44.5v-1v0v1
q3 27 18 44.5t35 17.5zM396 411q-13 0 -23 11.5t-12 29.5v1v-1v1v-1q-2 -18 -12 -29.5t-22 -11.5q12 0 22 -11.5t12 -28.5v-1v0v1q2 17 12 28.5t23 11.5zM600 411q-13 0 -22.5 11.5t-11.5 29.5v1v-1v1v-1q-2 -18 -12 -29.5t-23 -11.5q13 0 23 -11.5t12 -28.5v-1v0v1
q2 17 11.5 28.5t22.5 11.5z" />
    <glyph glyph-name="uniE611" unicode="&#xe611;" 
d="M962 549l-465 202q-6 3 -12 0l-424 -191q-8 -3 -8 -13v-474q0 -10 8 -14l439 -209q3 -2 6.5 -2t6.5 2l449 219q8 4 8 13v454q0 9 -8 13zM491 722l433 -189l-412 -177l-423 182q-2 0 -4 1zM82 508l415 -178v-446l-415 198v426zM526 -111v441l415 178v-417zM376 281
l-168 73q-14 5 -20 -8.5t8 -19.5l169 -72q3 -1 6 -1q9 0 13 9q6 13 -8 19z" />
    <glyph glyph-name="uniE612" unicode="&#xe612;" 
d="M952 -26l-341 358q-6 6 -6 15t6 15l21 21q6 6 15 6l54 -1q9 0 16 7l65 65q6 7 6 16t-6 15l-239 241q-6 7 -15 7t-16 -7l-64 -65q-7 -7 -7 -16l1 -55q0 -9 -6 -16l-195 -197q-7 -6 -16 -6h-55q-9 0 -16 -7l-64 -64q-6 -7 -6 -16t6 -15l239 -241q6 -7 15 -7t16 7l65 66
q6 6 6 15l-1 55q0 9 7 16l33 33q7 7 16 7t15 -7l353 -345q4 -4 10 -5l43 -9q12 -3 20 6l33 32q8 9 6 20l-9 45q-1 6 -5 11zM900 -100l-25 6q-6 1 -10 6l-358 363q-7 6 -16 6t-15 -6l-76 -77q-7 -7 -6 -16v-30q0 -9 -6 -15l-40 -41q-7 -7 -16 -7t-15 7l-166 167q-6 6 -6 15
t6 15l40 40q6 7 16 7h30q9 0 16 6l219 222q7 7 7 16l-1 30q0 9 6 16l41 40q6 7 15 7t16 -7l165 -167q6 -6 6 -15t-6 -15l-41 -41q-6 -7 -16 -7l-29 1q-9 0 -16 -6l-64 -65q-6 -6 -6 -15t6 -16l361 -363q4 -5 5 -11l5 -25q2 -11 -6 -19q-9 -9 -20 -6zM70 -83h338
q5 0 8.5 -3.5t3.5 -9.5v-26q0 -5 -3.5 -9t-8.5 -4h-338q-5 0 -9 4t-4 9v26q0 6 4 9.5t9 3.5z" />
    <glyph glyph-name="uniE613" unicode="&#xe613;" 
d="M900 -50h-776q-7 0 -12 5t-5 13v775q0 7 5 12.5t12 5.5h776q7 0 12 -5.5t5 -12.5v-775q0 -8 -5 -13t-12 -5zM142 -14h740v739h-740v-739zM887 518h-750q-7 0 -12.5 5t-5.5 12.5t5.5 12.5t12.5 5h750q7 0 12.5 -5t5.5 -12.5t-5.5 -12.5t-12.5 -5zM229 679
q-17 0 -28.5 -11.5t-11.5 -28t11.5 -28t28 -11.5t28 11.5t11.5 28t-11.5 28t-27.5 11.5zM342 679q-16 0 -27.5 -11.5t-11.5 -28t11.5 -28t27.5 -11.5t27.5 11.5t11.5 28t-11.5 28t-27.5 11.5zM455 679q-16 0 -27.5 -12t-11.5 -28t11.5 -27.5t27.5 -11.5t27.5 11.5t11.5 28
t-11.5 28t-27.5 11.5zM512 375h-243q-8 0 -13 5t-5 12.5t5 12.5t13 5h243q7 0 12.5 -5t5.5 -12.5t-5.5 -12.5t-12.5 -5zM512 262h-243q-8 0 -13 5.5t-5 12.5t5 12.5t13 5.5h243q7 0 12.5 -5.5t5.5 -13t-5.5 -12.5t-12.5 -5zM512 149h-243q-8 0 -13 5.5t-5 12.5t5 12.5
t13 5.5h243q7 0 12.5 -5.5t5.5 -12.5t-5.5 -12.5t-12.5 -5.5zM755 149h-154q-7 0 -12.5 5.5t-5.5 12.5v226q0 7 5.5 12t12.5 5h154q8 0 13 -5t5 -12v-226q0 -7 -5 -12.5t-13 -5.5zM619 185h119v190h-119v-190z" />
    <glyph glyph-name="uniE614" unicode="&#xe614;" 
d="M823 -212h-622q-83 0 -142 59t-59 142v622q0 83 59 142t142 59h623q82 0 141 -59t59 -142v-623q0 -82 -59 -141t-142 -59zM201 775q-68 0 -116 -48t-48 -116v-623q0 -67 48 -115t116 -48h623q67 0 115 48t48 115v623q0 68 -48 116t-115 48h-623zM344 122q-6 0 -11 4
q-11 7 -7 20l63 194l-165 120q-11 8 -6.5 20.5t17.5 12.5h204l63 194q4 13 18 13q13 0 17 -13l63 -194h204q13 0 17.5 -12.5t-6.5 -20.5l-165 -120l63 -194q4 -13 -7 -20.5t-21 0.5l-165 119l-165 -119q-5 -4 -11 -4zM292 456l130 -94q11 -8 7 -21l-50 -152l130 94
q11 8 21 0l130 -94l-49 152q-5 13 6 21l130 94h-160q-14 0 -18 13l-49 152l-50 -152q-4 -13 -18 -13h-160zM1006 -30h-988q-7 0 -12.5 5.5t-5.5 13t5.5 13t12.5 5.5h987q8 0 13.5 -5.5t5.5 -13t-5.5 -13t-12.5 -5.5zM512 -60l7 -22h24l-19 -14l7 -22l-19 14l-19 -14l7 22
l-19 14h24zM432 -111h-207q-5 0 -9 4t-4 9t4 8.5t9 3.5h207q5 0 9 -3.5t4 -8.5t-4 -9t-9 -4zM799 -111h-207q-5 0 -9 4t-4 9t4 8.5t9 3.5h207q5 0 9 -3.5t4 -8.5t-4 -9t-9 -4z" />
    <glyph glyph-name="uniE615" unicode="&#xe615;" 
d="M1024 337h-475v475h-74v-475h-475v-74h475v-475h74v475h475v74z" />
    <glyph glyph-name="uniE616" unicode="&#xe616;" 
d="M299 -109q-12 5 -13 5q-37 10 -60.5 39.5t-23.5 67.5q-1 51 0 261q0 16 7 25t19.5 8.5t20 -9.5t7.5 -24v-123v-122q0 -39 16.5 -55.5t55.5 -16.5h369q36 0 52.5 16.5t16.5 53.5v120v120q0 20 4 24q16 15 29 15q10 -1 16 -8.5t6 -19.5v-177q0 -74 -1 -82q0 -44 -23 -73
t-65 -41l-9 -4h-424zM505 664q-13 -20 -14 -21q-117 -117 -374 -372q-13 -13 -20.5 -13.5t-18.5 10.5t-11 18.5t11 19.5l4 4q341 338 401 398q15 15 28 15t29 -15q243 -243 401 -400q14 -13 14.5 -20.5t-11.5 -19.5q-18 -19 -37 0q-3 4 -34 35q-261 259 -344 342
q-1 1 -12 19h-12z" />
    <glyph glyph-name="uniE617" unicode="&#xe617;" 
d="M147 762h200q31 0 53 -22t22 -53v-224q0 -32 -22 -54t-53 -22h-200q-32 0 -54 22t-22 54v224q0 31 22 53t54 22zM21 463q0 -52 37 -89t89 -37h200q52 0 89 37t37 89v224q0 52 -37 88.5t-89 36.5h-200q-52 0 -89 -36.5t-37 -88.5v-224zM147 213h200q31 0 53 -22t22 -54
v-224q0 -31 -22 -53t-53 -22h-200q-32 0 -54 22t-22 53v224q0 32 22 54t54 22zM21 -87q0 -52 37 -88.5t89 -36.5h200q52 0 89 36.5t37 88.5v224q0 52 -37 89t-89 37h-200q-52 0 -89 -37t-37 -89v-224zM999 662q10 0 17.5 7.5t7.5 17.5t-7.5 17.5t-17.5 7.5h-426
q-11 0 -18 -7.5t-7 -17.5t7 -17.5t18 -7.5h426zM999 537q10 0 17.5 7.5t7.5 18t-7.5 17.5t-17.5 7h-426q-11 0 -18 -7t-7 -17.5t7 -18t18 -7.5h426zM999 412q10 0 17.5 7.5t7.5 18t-7.5 17.5t-17.5 7h-426q-11 0 -18 -7t-7 -17.5t7 -18t18 -7.5h426zM999 138q10 0 17.5 7
t7.5 17.5t-7.5 18t-17.5 7.5h-426q-11 0 -18 -7.5t-7 -18t7 -17.5t18 -7h426zM999 13q10 0 17.5 7t7.5 17.5t-7.5 18t-17.5 7.5h-426q-11 0 -18 -7.5t-7 -18t7 -17.5t18 -7h426zM999 -112q10 0 17.5 7.5t7.5 17.5t-7.5 17.5t-17.5 7.5h-426q-11 0 -18 -7.5t-7 -17.5t7 -17.5
t18 -7.5h426z" />
    <glyph glyph-name="uniE618" unicode="&#xe618;" horiz-adv-x="1429" 
d="M1163 833q11 0 17 -7t6 -15v-335q0 -8 -6.5 -15.5t-17.5 -7.5h-335q-10 0 -16.5 7t-6.5 16v335q0 8 6 15.5t17 7.5zM1163 874h-336q-28 0 -46 -19.5t-18 -44.5v-335q0 -25 18 -44.5t46 -19.5h335q28 0 46 19t18 45v336q0 25 -18 44t-45 19zM1163 282q11 0 17 -7t6 -15
v-335q0 -8 -6.5 -15.5t-17.5 -7.5h-335q-10 0 -16.5 7t-6.5 16v335q0 8 6 15.5t17 7.5h336v-1zM1163 323h-336q-28 0 -46 -19.5t-18 -44.5v-335q0 -25 18 -44.5t46 -19.5h335q28 0 46 19t18 45v336q0 25 -18 44t-45 19zM612 833q11 0 17.5 -7t6.5 -16v-335q0 -8 -6.5 -15.5
t-17.5 -7.5h-335q-10 0 -16.5 7t-6.5 16v336q0 8 6 15.5t17 7.5zM612 874h-335q-28 0 -46 -19t-18 -44v-335q0 -25 18 -44.5t46 -19.5h335q28 0 46 19t18 45v335q-1 25 -19 44t-45 19zM612 282q24 0 24 -23v-335q0 -8 -6.5 -15.5t-17.5 -7.5h-335q-10 0 -16.5 7t-6.5 16v336
q0 7 8 15t15 8h335v-1zM612 323h-335q-24 0 -44 -20t-20 -44v-335q0 -25 18 -44.5t46 -19.5h335q28 0 46 19t18 45v336q-1 28 -18.5 45.5t-45.5 17.5z" />
    <glyph glyph-name="uniE619" unicode="&#xe619;" 
d="M1024 650l-648 -721l-31 30l-345 337l32 32l344 -335l616 688z" />
    <glyph glyph-name="uniE61A" unicode="&#xe61a;" 
d="M491 769q-100 0 -191 -38.5t-156.5 -104.5t-104.5 -157t-39 -190.5t39 -190.5t104.5 -157t156.5 -104.5t191 -38.5t191 38.5t156.5 104.5t104.5 157t39 190.5t-39 190.5t-104.5 157t-156.5 104.5t-191 38.5zM539 -5q0 -10 -7.5 -17t-17.5 -7h-74q-10 0 -17 7t-7 17v74
q0 10 7 17t17 7h74q10 0 17.5 -7t7.5 -17v-74zM660 333q-10 -15 -60 -54l-31 -21q-27 -21 -34 -41q-2 -8 -3 -24q-1 -4 -4.5 -9t-10.5 -5h-80q-16 0 -15 15q3 59 18 77q12 14 34 32t38 28l16 11q14 11 22 23q19 26 19 47q0 30 -17 54.5t-63 24.5q-45 0 -64 -30
q-15 -23 -18 -44q-3 -16 -15 -16h-78q-11 0 -16 5.5t-4 10.5q9 96 77 139q46 29 113 29q88 0 146.5 -42t58.5 -125q0 -46 -29 -85z" />
    <glyph glyph-name="uniE61B" unicode="&#xe61b;" 
d="M860 788h-114l-129 -278q-20 -39 -53 -111.5t-46 -98.5h-6q-14 31 -46 102.5t-48 107.5l-128 278h-123l260 -506h-225v-67h254v-105h-254v-68h254v-251h115v248h257v68h-257v105h257v67h-225z" />
    <glyph glyph-name="uniE61C" unicode="&#xe61c;" 
d="M816 701h-608q-60 0 -102.5 -42t-42.5 -101v-516q0 -59 42.5 -101t102.5 -42h608q60 0 102.5 42t42.5 101v516q0 59 -42.5 101t-102.5 42zM915 225h-306q-24 0 -40.5 16.5t-16.5 39.5v38q0 23 16.5 39.5t40.5 16.5h306v-150zM915 420h-306q-43 0 -73 -29.5t-30 -71.5v-38
q0 -42 30 -72t73 -30h306v-137q0 -40 -29 -68.5t-70 -28.5h-608q-41 0 -70 28.5t-29 68.5v516q0 40 29 68.5t70 28.5h608q41 0 70 -28.5t29 -68.5v-138zM597 299.5q0 -15.5 11 -26t27 -10.5t27 10.5t11 26t-11 26.5t-27 11t-27 -11t-11 -26.5z" />
    <glyph glyph-name="uniE61D" unicode="&#xe61d;" 
d="M880 364q7 -37 7 -74q0 -79 -30.5 -149t-85.5 -123l90 -90q6 -7 6 -16.5t-6.5 -16t-16 -6.5t-15.5 7l-93 93q-100 -74 -224 -74t-224 74l-91 -91q-7 -6 -16 -6t-15.5 6.5t-6.5 15.5t7 15l88 89q-55 52 -86 122.5t-31 149.5q0 37 7 74q-35 27 -55.5 67.5t-20.5 86.5
q0 80 57 136.5t137 56.5q84 0 141 -62q53 16 109 16t109 -16q57 62 141 62q80 0 137 -56.5t57 -136.5q0 -46 -20.5 -86.5t-55.5 -67.5zM262 665q-62 0 -105 -43t-43 -104q0 -62 43 -105q26 72 77.5 129t121.5 89q-42 34 -94 34zM512 620q-90 0 -166 -44t-120 -120t-44 -166
t44 -166t120 -120t166 -44t166 44t120 120t44 166t-44 166t-120 120t-166 44zM762 665q-52 0 -94 -34q70 -32 121.5 -89t77.5 -129q43 43 43 105q0 61 -43 104t-105 43zM683 256h-182q-10 0 -16.5 6.5t-6.5 16.5v204q0 10 6.5 16.5t16 6.5t16 -6.5t6.5 -16.5v-182h160
q9 0 15.5 -6.5t6.5 -16t-6.5 -16t-15.5 -6.5z" />
    <glyph glyph-name="uniE61E" unicode="&#xe61e;" 
d="M1016 630l-193 45l-9 -194l96 71q73 -115 73 -252q0 -96 -37.5 -183t-100.5 -150t-150 -100.5t-183 -37.5t-183 37.5t-150 100.5t-100.5 150t-37.5 183t37.5 183t100.5 150t150 100.5t183 37.5q63 0 124 -16q8 -3 15.5 1.5t9.5 12.5t-2 15.5t-13 9.5q-65 18 -134 18
q-103 0 -196.5 -38.5t-166 -111t-111 -166t-38.5 -196.5t38.5 -196.5t111 -166t166 -111t196.5 -38.5t196.5 38.5t166 111t111 166t38.5 196.5q0 150 -81 276zM508 78l145 365v38h-278v-69h189l-144 -334h88z" />
    <glyph glyph-name="uniE61F" unicode="&#xe61f;" 
d="M512 812q-138 0 -256 -69t-187 -187t-69 -256t69 -256t187 -187t256 -69t256 69t187 187t69 256t-69 256t-187 187t-256 69zM576 -20h-128v128h128v-128zM576 236q0 -29 -17.5 -46.5t-46.5 -17.5t-46.5 17.5t-17.5 46.5v320q0 29 17.5 46.5t46.5 17.5t46.5 -17.5
t17.5 -46.5v-320z" />
    <glyph glyph-name="uniE620" unicode="&#xe620;" 
d="M275 210q101 -75 239 -75q63 0 127 22.5t108 59.5q57 -31 98 -92t42 -125h-755q7 71 48.5 126.5t92.5 83.5zM744 256q-99 -91 -235 -91q-135 0 -235 90q-85 -43 -133.5 -116.5t-48.5 -171.5h837q0 98 -49 172t-136 117zM237 378v213h-9q37 80 113 129t168 49
q93 0 168.5 -49t112.5 -129h-8v-213q45 0 76.5 31t31.5 75q0 30 -15 55t-41 39q-35 100 -124 163t-200.5 63t-200.5 -63t-125 -163q-26 -14 -41 -39t-15 -55q0 -44 32 -75t77 -31zM509 274q-82 0 -139.5 56.5t-57.5 136.5q0 79 59 136t138 57q81 0 138.5 -56.5t57.5 -136.5
t-57.5 -136.5t-138.5 -56.5zM509 697q-97 0 -166 -67.5t-69 -162.5q0 -96 69 -164t166 -68q98 0 167 68t69 164q0 95 -69 162.5t-167 67.5z" />
    <glyph glyph-name="uniE621" unicode="&#xe621;" 
d="M512 63l-316 -166l60 352l-256 250l354 51l158 321l158 -321l354 -51l-256 -250l60 -352z" />
    <glyph glyph-name="uniE622" unicode="&#xe622;" 
d="M722 691q-67 0 -123.5 -34t-86.5 -91q-30 57 -86.5 91t-123.5 34q-98 0 -167.5 -68.5t-69.5 -164.5q0 -56 15 -104.5t62 -105.5q63 -78 370 -338v-1v0v1q308 262 370 338q47 57 62 105.5t15 104.5q0 96 -69.5 164.5t-167.5 68.5zM859 266q-59 -72 -345 -316l-2 -2
q-287 245 -347 318q-44 54 -57 98t-13 94q0 84 60.5 143.5t146.5 59.5q58 0 107.5 -29t76.5 -80l26 -49l26 49q27 51 76.5 80t107.5 29q86 0 146.5 -59.5t60.5 -143.5q0 -50 -13 -94t-57 -98z" />
    <glyph glyph-name="uniE623" unicode="&#xe623;" 
d="M723 684q-40 0 -77 -10.5t-60.5 -26t-41 -30.5t-25.5 -26l-7 -11q-3 5 -9 12t-25.5 24.5t-42.5 31.5t-60.5 25t-78.5 11q-51 0 -93.5 -23.5t-67.5 -61t-38.5 -82t-13.5 -89.5q0 -40 8.5 -79t35.5 -93.5t72 -107t125.5 -115t187.5 -120.5q107 58 187 120.5t125 115
t72.5 107.5t36 94.5t8.5 78.5q0 45 -14 89.5t-40 82t-69 60.5t-95 23z" />
    <glyph glyph-name="uniE624" unicode="&#xe624;" 
d="M361 6v469q0 9 -6.5 15.5t-15.5 6.5t-15 -6.5t-6 -15.5v-469q0 -9 6 -15t15 -6t15.5 6t6.5 15zM531 6v469q0 9 -6 15.5t-15 6.5t-15 -6.5t-6 -15.5v-469q0 -9 6 -15t15 -6t15 6t6 15zM147 518q-16 0 -20 -16h-1v-581q0 -36 25 -61t60 -25h597q36 0 61 25t25 61v576
q0 8 -6.5 14.5t-15 6.5t-15 -6.5t-6.5 -14.5v-576q0 -18 -12.5 -30.5t-30.5 -12.5h-597q-17 0 -29.5 12.5t-12.5 30.5v576q0 8 -6.5 14.5t-15.5 6.5zM83 624h256q1 0 1 1q10 -1 17 6l79 79h148l79 -79q7 -7 17 -6q0 -1 1 -1h256q8 0 14.5 6.5t6.5 15.5t-6.5 15t-14.5 6h-246
l-79 79q-7 7 -16 6h-1h-171q-10 1 -16 -6l-79 -79h-246q-9 0 -15 -6t-6 -15t6 -15.5t15 -6.5zM702 6v469q0 9 -6.5 15.5t-15 6.5t-15 -6.5t-6.5 -15.5v-469q0 -9 6.5 -15t15 -6t15 6t6.5 15z" />
    <glyph glyph-name="uniE625" unicode="&#xe625;" 
d="M325 40.5q7 -7.5 17 -7.5t18 8l607 729q8 7 8 17.5t-7.5 17.5t-17.5 7t-17 -7l-608 -730q-7 -7 -7 -17t7 -17.5zM951 301q-10 0 -17 -7.5t-7 -17.5v-390q0 -21 -14.5 -35t-34.5 -14h-732q-20 0 -34.5 14t-14.5 35v732q0 20 14.5 34.5t34.5 14.5h342q10 0 17 7t7 17
t-7 17.5t-17 7.5h-342q-41 0 -69.5 -29t-28.5 -69v-732q0 -41 28.5 -69.5t69.5 -28.5h732q41 0 69.5 28.5t28.5 69.5v390q0 10 -7.5 17.5t-17.5 7.5z" />
    <glyph glyph-name="uniE626" unicode="&#xe626;" 
d="M512 -212l-14 12q-160 142 -259 307q-104 174 -109 326q-2 75 21 139q25 68 77 120q58 58 133 88q72 30 151 30t151 -30q76 -30 133 -88q53 -52 78 -119q24 -63 22 -138t-31 -159q-27 -80 -77 -163q-98 -164 -262 -313zM512.5 769q-72.5 0 -138.5 -27.5t-117 -78.5
q-91 -90 -86 -229q4 -135 95.5 -293.5t245.5 -297.5q158 146 248.5 303t94.5 290q3 136 -88 227q-51 51 -116.5 78.5t-138 27.5zM514 215q-88 0 -150.5 62.5t-62.5 150.5t62.5 150.5t150.5 62.5t150.5 -62.5t62.5 -150.5t-62.5 -150.5t-150.5 -62.5zM514 600
q-71 0 -121.5 -50.5t-50.5 -121.5t50.5 -121.5t121.5 -50.5t121.5 50.5t50.5 121.5t-50.5 121.5t-121.5 50.5z" />
    <glyph glyph-name="uniE627" unicode="&#xe627;" 
d="M512 -84q13 0 22 9.5t9 22.5t-9 22.5t-22 9.5t-22 -9.5t-9 -22.5t9 -22.5t22 -9.5zM730 749h-436q-26 0 -44 -19t-18 -45v-769q0 -26 18 -45t44 -19h436q26 0 44 19t18 45v769q0 26 -18 45t-44 19zM761 -84q0 -13 -9 -22.5t-22 -9.5h-436q-13 0 -22 9.5t-9 22.5v96h498
v-96zM761 44h-498v641q0 13 9 22.5t22 9.5h436q13 0 22 -9.5t9 -22.5v-641z" />
    <glyph glyph-name="uniE628" unicode="&#xe628;" 
d="M117 408q-44 0 -75 -31t-31 -75t31 -75.5t75 -31.5t75.5 31.5t31.5 75.5t-31.5 75t-75.5 31zM117.5 231q-29.5 0 -50 20.5t-20.5 50t20.5 50.5t50 21t50 -21t20.5 -50.5t-20.5 -50t-50 -20.5zM905 408q-44 0 -75 -31t-31 -75t31 -75.5t75 -31.5t75.5 31.5t31.5 75.5
t-31.5 75t-75.5 31zM905.5 231q-29.5 0 -50 20.5t-20.5 50t20.5 50.5t50 21t50 -21t20.5 -50.5t-20.5 -50t-50 -20.5zM511 408q-44 0 -75 -31t-31 -75t31 -75.5t75 -31.5t75.5 31.5t31.5 75.5t-31.5 75t-75.5 31zM511.5 231q-29.5 0 -50 20.5t-20.5 50t20.5 50.5t50 21
t50 -21t20.5 -50.5t-20.5 -50t-50 -20.5z" />
    <glyph glyph-name="uniE629" unicode="&#xe629;" 
d="M276 -90q-57 0 -101 42t-44 96v396q0 55 41.5 95t98.5 40q9 0 15.5 -6.5t6.5 -15.5t-6.5 -15.5t-15.5 -6.5q-39 0 -67.5 -27t-28.5 -64v-396q0 -36 31 -65t70 -29h509q35 0 58.5 27t23.5 67v396q0 38 -26 64.5t-63 26.5q-9 0 -15.5 6.5t-6.5 15.5t6.5 15.5t15.5 6.5
q56 0 94.5 -39t38.5 -96v-396q0 -59 -36 -98.5t-90 -39.5h-509zM300 314q-9 0 -15.5 6.5t-6.5 16t6.5 16t15.5 6.5h55q9 0 15.5 -6.5t6.5 -16t-6.5 -16t-15.5 -6.5h-55zM484 314q-9 0 -15.5 6.5t-6.5 16t6.5 16t15.5 6.5h55q9 0 15.5 -6.5t6.5 -16t-6.5 -16t-15.5 -6.5h-55z
M686 314q-9 0 -15.5 6.5t-6.5 16t6.5 16t15.5 6.5h56q9 0 15.5 -6.5t6.5 -16t-6.5 -16t-15.5 -6.5h-56zM300 204q-9 0 -15.5 6.5t-6.5 15.5t6.5 15.5t15.5 6.5h55q9 0 15.5 -6.5t6.5 -15.5t-6.5 -15.5t-15.5 -6.5h-55zM484 204q-9 0 -15.5 6.5t-6.5 15.5t6.5 15.5t15.5 6.5
h55q9 0 15.5 -6.5t6.5 -15.5t-6.5 -15.5t-15.5 -6.5h-55zM686 204q-9 0 -15.5 6.5t-6.5 15.5t6.5 15.5t15.5 6.5h56q9 0 15.5 -6.5t6.5 -15.5t-6.5 -15.5t-15.5 -6.5h-56zM300 94q-9 0 -15.5 6.5t-6.5 15.5t6.5 15.5t15.5 6.5h55q9 0 15.5 -6.5t6.5 -15.5t-6.5 -15.5
t-15.5 -6.5h-55zM484 94q-9 0 -15.5 6.5t-6.5 15.5t6.5 15.5t15.5 6.5h55q9 0 15.5 -6.5t6.5 -15.5t-6.5 -15.5t-15.5 -6.5h-55zM686 94q-9 0 -15.5 6.5t-6.5 15.5t6.5 15.5t15.5 6.5h56q9 0 15.5 -6.5t6.5 -15.5t-6.5 -15.5t-15.5 -6.5h-56zM263 535q-9 0 -15.5 6.5
t-6.5 15.5t6.5 15.5t15.5 6.5h497q9 0 15.5 -6.5t6.5 -15.5t-6.5 -15.5t-15.5 -6.5h-497zM355 480q-9 0 -15.5 6.5t-6.5 15.5v110q0 10 6.5 16.5t15.5 6.5t15.5 -6.5t6.5 -16.5v-110q0 -9 -6.5 -15.5t-15.5 -6.5zM686.5 480q-9.5 0 -16 6.5t-6.5 15.5v110q0 10 6.5 16.5
t16 6.5t16 -6.5t6.5 -16.5v-110q0 -9 -6.5 -15.5t-16 -6.5z" />
    <glyph glyph-name="uniE62A" unicode="&#xe62a;" 
d="M867 603q17 17 17 41t-16 40l-101 102q-16 17 -39.5 17t-40.5 -17l-62 -63l180 -183zM339 74l-172 175l-53 -153l74 -76zM787 520l-181 184l-425 -431l182 -184zM104 67l-31 -89l87 32zM72 -144v-68h880v68h-880z" />
    <glyph glyph-name="uniE62B" unicode="&#xe62b;" 
d="M893 346q0 -40 -21 -81.5t-62.5 -80t-96.5 -68.5t-129 -48t-154.5 -18t-157 19.5t-137.5 54t-98 88t-37 116.5q0 67 39.5 142.5t113.5 150.5q96 99 194.5 138t140.5 -4q38 -38 12 -122q-2 -9 -0.5 -12.5t5.5 -4t8.5 0.5t7.5 2l3 1q80 35 141 35t87 -36t0 -104
q-1 -7 -2.5 -11t2.5 -7.5t7 -4.5t10 -3q32 -11 58.5 -28t46 -47.5t19.5 -67.5v0zM717 348q-5 56 -51 99t-119 63.5t-157 12.5q-127 -13 -211 -82.5t-76 -154.5q6 -56 51.5 -99t119 -63.5t156.5 -12.5q128 14 211.5 83t75.5 154v0zM539 255q-26 -60 -90.5 -88t-128.5 -7
q-61 20 -84 74t4 109t86.5 81.5t120.5 11.5q63 -17 90 -70t2 -111v0zM386 247q12 19 6 39.5t-26 29.5q-19 8 -41.5 0.5t-34.5 -26.5q-12 -20 -7 -40t24.5 -29.5t42.5 -1.5t36 28v0zM439 317q5 8 2.5 16t-10.5 10q-8 3 -16 0t-12 -11q-10 -18 7 -26q8 -3 16.5 0.5t12.5 10.5
v0zM954 805q50 -56 64.5 -130t-7.5 -141q-6 -16 -20 -23.5t-29.5 -2t-23 20t-2.5 30.5q16 47 5.5 99.5t-45.5 92.5q-36 40 -85 55.5t-99 5.5q-16 -4 -29.5 5t-17 25.5t5.5 30t25 17.5q70 15 139 -7t119 -78v0zM793 748q34 -11 58 -38.5t31 -63.5t-4 -68q-5 -14 -17 -20
t-25 -2t-19.5 16.5t-2.5 26.5q11 37 -14 65t-61 20q-14 -3 -26 4.5t-14 21.5q-3 14 4.5 26t21.5 15q34 8 68 -3v0zM793 748z" />
    <glyph glyph-name="uniE62C" unicode="&#xe62c;" horiz-adv-x="1000" 
d="M676 471q16 0 34 -2q-23 106 -123.5 176t-229.5 70q-95 0 -175.5 -39.5t-127.5 -108t-47 -150.5q0 -138 140 -236l-35 -106l122 62q89 -18 123 -18q15 0 33 2q-11 37 -11 73q0 115 86.5 196t210.5 81zM485.5 573q22.5 0 38.5 -16t16 -38.5t-16 -38t-38.5 -15.5t-38 15.5
t-15.5 38t15.5 38.5t38 16zM240.5 464q-22.5 0 -38 15.5t-15.5 38t15.5 38.5t38 16t38.5 -16t16 -38.5t-16 -38t-38.5 -15.5zM994 197q0 68 -41.5 127t-110 93t-146.5 34q-124 0 -211 -74.5t-87 -179.5t87 -179.5t211 -74.5q35 0 105 18l96 -53l-26 87q123 92 123 202z
M605 236q-16 0 -27.5 11.5t-11.5 27.5t11.5 27t27.5 11t27 -11t11 -27t-11 -27.5t-27 -11.5zM797 234q-16 0 -27 11.5t-11 27.5t11 27t27 11t27.5 -11t11.5 -27t-11.5 -27.5t-27.5 -11.5z" />
    <glyph glyph-name="uniE62D" unicode="&#xe62d;" 
d="M200 344l-2 6l-1 6l-1 4v5v5v5l1 6l2 7l2 6l3 8l4 8l5 7v6l1 5l1 7l2 7l2 9l2 4l2 3l2 4l3 3v5v7v7l2 10l1 11l3 14l4 14l3 8l3 9l3 8l4 8l4 9l4 9l6 9l6 10l3 5l3 4l7 10l7 10l8 10l8 10l10 10l9 10l12 10l7 7l9 7l10 6l10 6l9 5l11 5l11 5l12 4l11 4l12 4l12 2l13 3
l13 2l13 2l13 1l14 1h13h13h14l14 -1l13 -2l14 -2l13 -3l13 -3l13 -3l14 -4l13 -4l12 -5l13 -6l12 -6l12 -6l11 -8l10 -6l4 -4l5 -3l9 -8l8 -7l7 -8l8 -8l6 -9l7 -8l5 -9l5 -8l6 -10l4 -8l8 -17l4 -9l3 -9l3 -9l2 -8l2 -8l2 -8l5 -16l2 -13l2 -13l1 -10l3 -16v-3l2 -3l5 -8
l3 -6l3 -5l4 -7l3 -7l2 -8l3 -8l1 -9l1 -4l1 -5v-5l-1 -4v-6l-1 -5l-3 -11l-2 -5l-2 -6v-2l1 -1l2 -5l12 -17l10 -14l4 -9l6 -9l6 -11l6 -11l6 -13l7 -15l4 -8l3 -9l3 -9l3 -8l3 -9l2 -8l3 -16l2 -16l2 -14v-8v-7v-6l-1 -7l-2 -12l-2 -11l-3 -10l-1 -5l-3 -4l-2 -4l-2 -4
l-3 -3l-2 -3l-3 -3l-3 -2l-3 -2l-3 -1l-2 -1h-2h-2l-2 1l-5 2l-2 1l-2 2l-3 2l-2 3l-4 4l-5 6l-3 6l-4 6l-4 6l-5 10l-5 11l-1 1h-1l-2 -2l-2 -3l-2 -4l-4 -10l-6 -16l-7 -18l-6 -9l-6 -10l-7 -10l-7 -11l-4 -5l-5 -5l-10 -10l1 -1l1 -2l5 -3l23 -10l9 -6l9 -5l10 -7l8 -7
l4 -3l3 -3l3 -5l2 -4l1 -4l2 -4l1 -4l1 -5l-1 -3v-3l-1 -3l-2 -3v-2l-2 -3l-4 -5l-3 -5l-3 -3l-3 -2l-6 -5l-7 -4l-7 -4l-8 -3l-9 -3l-5 -2l-4 -1l-10 -3l-11 -2l-10 -2l-12 -2h-12l-12 -2h-12h-13h-13l-14 1l-12 1l-14 2l-14 1l-14 2l-14 4l-13 3l-14 3l-14 5l-13 4l-7 3
l-7 2l-4 2h-4h-5h-6l-13 1l-7 1l-8 1l-6 -5l-7 -5l-10 -5l-11 -6l-7 -3l-7 -3l-16 -6l-8 -2l-9 -3l-13 -2l-7 -1h-8l-9 -1l-10 -1h-9h-10h-22l-22 1l-23 2l-11 2l-11 1l-10 2l-11 2l-10 3l-10 2l-9 4l-8 3l-8 4l-7 4l-6 5l-3 2l-3 3l-2 3l-2 3l-2 3l-1 3l-2 6l-1 3l-1 4v3
l1 4v3l1 4v2v6v4l2 4l1 5l3 5l2 2l1 3l5 5l3 2l3 2l3 3l5 1l3 2l5 3l5 1l6 2l6 1l6 1l6 1l8 1h2l1 1v1l-1 2l-4 2l-10 8l-7 6l-7 6l-8 8l-8 10l-10 10l-3 6l-5 6l-4 7l-3 8l-5 7l-3 9l-4 8l-4 9l-2 9l-3 11l-1 1h-1v1h-1l-1 -1l-1 -1l-1 -2l-1 -2l-1 -2l-1 -3l-5 -8l-2 -5
l-4 -4l-4 -5l-4 -6l-5 -5l-5 -5l-5 -5l-6 -3l-6 -4l-6 -2l-7 -2l-6 -1h-1h-1l-1 1l-2 2l-2 2l-2 6l-2 4l-2 4l-1 6l-1 5l-2 11l-1 7v7v15l1 17l1 8l2 9l1 10l3 8l3 10l3 10l4 10l3 10l6 10l4 10l6 10l7 11l7 10l7 11l7 7l7 9l9 8l3 4l5 5l7 6l7 6l11 10l9 6z" />
    <glyph glyph-name="uniE62E" unicode="&#xe62e;" 
d="M1005 300q0 -29 -22.5 -67.5t-67.5 -78.5t-103.5 -74t-137.5 -56t-162 -22q-81 0 -159.5 21.5t-137 55.5t-104 74t-69 78.5t-23.5 68.5t23.5 68.5t69 78.5t104.5 74t137 55t159 21q84 0 163 -21t137.5 -55t103 -74t67.5 -78.5t22 -68.5zM512.5 543q-98.5 0 -168 -71
t-69.5 -172t69.5 -172t168 -71t168 71t69.5 172t-69.5 172t-168 71zM512 455q-63 0 -107 -45.5t-44 -109.5t44 -109.5t107 -45.5t107 45.5t44 109.5t-44 109.5t-107 45.5z" />
    <glyph glyph-name="uniE62F" unicode="&#xe62f;" 
d="M281 119q-50 0 -85 -35t-35 -84.5t35 -84.5t84.5 -35t85 35t35.5 84.5t-35.5 84.5t-84.5 35zM281 -80q-33 0 -56.5 23t-23.5 56.5t23.5 56.5t56.5 23t56.5 -23t23.5 -56.5t-23.5 -56.5t-56.5 -23zM800 -120q-49 0 -84.5 35t-35.5 84.5t35.5 84.5t85 35t84.5 -35t35 -84.5
t-35 -84.5t-85 -35zM800 79q-33 0 -56.5 -23t-23.5 -56.5t23.5 -56.5t56.5 -23t56.5 23t23.5 56.5t-23.5 56.5t-56.5 23zM600 460v-441v440v1zM1020 231v-232q0 -8 -6 -13.5t-14 -5.5h-40q-8 0 -14 5.5t-6 14t6 14t14 5.5h20v207l-133 213h-207v-440q0 -8 -5.5 -13.5
t-14.5 -5.5h-159q-8 0 -14 5.5t-6 14t6 14t14 5.5h139v560h-539v-560h51q8 0 14 -5.5t6 -14t-6 -14t-14 -5.5h-71q-8 0 -14 5.5t-6 13.5v600q0 8 6 14t14 6h579q9 0 14.5 -6t5.5 -14v-120h218q11 0 17 -10l142 -227q3 -5 3 -11zM820 246h-89v106h88z" />
    <glyph glyph-name="uniE630" unicode="&#xe630;" 
d="M960 -13q0 -60 -41.5 -101.5t-101.5 -41.5h-611q-59 0 -101 41.5t-42 101.5v611q0 59 42 101t101 42h611q60 0 101.5 -42t41.5 -101v-611zM920 599q0 42 -29.5 72t-72.5 30h-613q-42 0 -72 -30t-30 -72v-613q0 -43 30 -72.5t72 -29.5h613q43 0 72.5 29.5t29.5 72.5v613z
" />
    <glyph glyph-name="uniE631" unicode="&#xe631;" 
d="M273 300l432 431l34 -34l-431 -431zM705 -130l-432 431l35 34l431 -431z" />
    <glyph glyph-name="uniE632" unicode="&#xe632;" 
d="M512 715q-117 0 -215.5 -57.5t-156 -156.5t-57.5 -215.5t57.5 -215.5t156 -156.5t215.5 -57.5t215.5 57.5t156 156.5t57.5 215.5t-57.5 215.5t-156 156.5t-215.5 57.5zM702 291q2 -10 2 -24q0 -16 -2 -27h-141v-64h141q2 -10 2 -24q0 -16 -2 -27h-141v-115l-18 -2
q-10 -1 -19.5 -1t-18.5 1q-10 1 -19 2v115h-134q-3 9 -3 25q0 7 0.5 13.5t2.5 12.5h134v64h-134q-3 9 -3 25q0 7 0.5 13.5t2.5 12.5h105l-135 237q10 2 21.5 2.5t21.5 0.5h21q11 -1 20 -3l120 -221l118 221q9 2 19.5 2.5t20.5 0.5h20q10 -1 19 -3l-132 -237h111zM498 125z
" />
    <glyph glyph-name="uniE633" unicode="&#xe633;" 
d="M512 -71q-75 0 -144 29q-67 28 -118.5 79.5t-79.5 118.5q-29 69 -29 144t29 144q28 67 79.5 118.5t118.5 79.5q69 29 144 29t144 -29q67 -28 118.5 -79.5t79.5 -118.5q29 -69 29 -144t-29 -144q-28 -67 -79.5 -118.5t-118.5 -79.5q-69 -29 -144 -29zM512 627
q-89 0 -164.5 -43.5t-119 -119t-43.5 -164.5t43.5 -164.5t119 -119t164.5 -43.5t164.5 43.5t119 119t43.5 164.5t-43.5 164.5t-119 119t-164.5 43.5zM349 463q19 0 33 -13.5t14 -33t-14 -33t-33 -13.5t-32.5 13.5t-13.5 33t13.5 33t32.5 13.5zM675 463q19 0 32.5 -13.5
t13.5 -33t-13.5 -33t-32.5 -13.5t-33 13.5t-14 33t14 33t33 13.5zM512 44q-72 0 -128.5 44t-74.5 113q-2 9 3 17.5t14 11t17.5 -2.5t10.5 -14q14 -54 58 -88t100 -34t100 34t58 88q2 9 10.5 14t17.5 2.5t14 -11t3 -17.5q-18 -69 -74.5 -113t-128.5 -44z" />
    <glyph glyph-name="uniE634" unicode="&#xe634;" 
d="M460 289h234q10 0 18 7t8 17.5t-8 17.5t-18 7h-234q-11 0 -18.5 -7t-7.5 -17.5t7.5 -17.5t18.5 -7zM382 72h288v1q16 2 16 19q0 7 -4.5 12.5t-11.5 6.5h-300q-20 0 -36 22t-16 44v415v2v1q0 9 -6 14.5t-14 5.5t-14 -5.5t-6 -14.5v-418q0 -41 31.5 -73t72.5 -32zM694 806
h-18h-46h-60q-33 0 -66 0.5t-60 0.5h-45h-17q-38 0 -68 -25.5t-34 -62.5q0 -1 -0.5 -2t-0.5 -2v0q0 -8 6 -14t14 -6t14 6t6 14q5 20 19.5 36t31.5 16h284v-118q0 -41 25 -66.5t67 -25.5h90v-380q0 -31 -19 -48.5t-43 -17.5q-8 0 -13.5 -6t-5.5 -13.5t5.5 -13t13.5 -6.5v0h1
h2h1q39 3 68 34.5t29 70.5v419zM746 596q-20 0 -36 28t-16 51v79l130 -158h-78zM460 413h234q10 0 18 7t8 17t-8 17.5t-18 7.5h-234q-11 0 -18.5 -7.5t-7.5 -17.5t7.5 -17t18.5 -7zM717 55q-14 0 -17 -15h-1q-6 -12 -12 -20t-13.5 -11t-11 -3.5t-13 0t-12.5 0.5h-385
q-20 0 -42 22.5t-22 43.5v502q0 18 18 38.5t38 24.5v1q8 0 13.5 6t5.5 13.5t-5.5 13.5t-13.5 6v1l-1 -1v1h-3l-1 -1q-38 -4 -64.5 -34.5t-26.5 -68.5v-502q0 -41 31.5 -73t72.5 -32h390q73 0 90 61q3 5 3 9q0 7 -5.5 12.5t-12.5 5.5z" />
    <glyph glyph-name="uniE635" unicode="&#xe635;" 
d="M144 131l-32 -23q-86 125 -86 276q0 99 38.5 189t103.5 155t155 103.5t189 38.5t189 -38.5t155 -103.5t103.5 -155t38.5 -189t-38.5 -189t-103.5 -155t-155 -103.5t-189 -38.5q-145 0 -266 80l21 33q111 -73 245 -73q91 0 173.5 35t142.5 95t95 142.5t35 173.5t-35 173.5
t-95 142.5t-142.5 95t-173.5 35t-173.5 -35t-142.5 -95t-95 -142.5t-35 -173.5q0 -139 78 -253zM725 324l37 -11q-23 -83 -92.5 -136t-157.5 -53t-157.5 53t-92.5 136l37 11q21 -71 80 -116t133 -45t133.5 45t79.5 116zM703 458q5 0 8.5 3.5t3.5 9t-3.5 9t-8.5 3.5t-9 -3.5
t-4 -9t4 -9t9 -3.5zM321 458q5 0 9 4t4 9t-4 8.5t-9 3.5t-8.5 -3.5t-3.5 -9t3.5 -9t8.5 -3.5zM703 419q-22 0 -37 15t-15 36.5t15 37t36.5 15.5t37 -15.5t15.5 -37t-15.5 -36.5t-36.5 -15v0zM321 419q-21 0 -36.5 15t-15.5 36.5t15.5 37t37 15.5t36.5 -15.5t15 -37
t-15 -36.5t-37 -15v0z" />
    <glyph glyph-name="uniE636" unicode="&#xe636;" horiz-adv-x="1106" 
d="M1001 812h-591q-36 0 -60.5 -25t-24.5 -60v-129l-258 -128q-3 0 -3 -3q-64 -46 -64 -129v-410q0 -8 7.5 -15.5t16 -7.5t16 7.5t7.5 15.5v410q0 56 41 88l6 6l266 134l3 3l3 3v3l3 3v3v3v6v140q0 15 11 26.5t27 11.5h591q24 0 41 -17t17 -41v-776q0 -8 7.5 -15.5t16 -7.5
t16 7.5t7.5 15.5v773q2 43 -28 74t-74 31zM187 236h164q9 0 16 7t7 16v164q0 9 -7 16t-16 7t-16 -7t-7 -16v-141h-141q-9 0 -16 -7t-7 -16t7 -16t16 -7zM796 86q-53 0 -93 -31.5t-51 -82.5l-5 -14h-185l-3 14q-11 51 -52 82.5t-94 31.5q-61 0 -105 -43.5t-44 -105t44 -105.5
t105 -44q50 0 90 31.5t53 79.5l3 12h188l3 -12q13 -48 53 -79.5t90 -31.5q61 0 105 44t44 105q0 62 -42.5 105.5t-103.5 43.5zM313 -165q-42 0 -72 30.5t-30 72t30 72t72 30.5t72 -30.5t30 -72.5t-29.5 -72t-72.5 -30zM795.5 -165q-41.5 0 -72 30.5t-30.5 72t30.5 72
t72 30.5t72 -30.5t30.5 -72t-30.5 -72t-72 -30.5z" />
    <glyph glyph-name="uniE637" unicode="&#xe637;" 
d="M815 -41h-608q-58 0 -99.5 41.5t-41.5 100.5v568q0 58 41.5 99.5t99.5 41.5h608q59 0 100.5 -41.5t41.5 -99.5v-163h-263q-50 0 -86 -35.5t-36 -85.5t36 -86t86 -36h263v-162q0 -59 -41.5 -100.5t-100.5 -41.5zM207 770q-42 0 -71.5 -30t-29.5 -71v-568q0 -42 29.5 -71.5
t71.5 -29.5h608q42 0 72 29.5t30 71.5v122h-223q-67 0 -114.5 47.5t-47.5 114.5t47.5 114.5t114.5 47.5h223v122q0 41 -30 71t-72 30h-608zM734.5 304q-33.5 0 -57.5 23.5t-24 57t24 57.5t57.5 24t57 -24t23.5 -57.5t-23.5 -57t-57 -23.5zM734.5 425q-16.5 0 -28.5 -12
t-12 -28.5t12 -28.5t28.5 -12t28.5 12t12 28.5t-12 28.5t-28.5 12zM917 557h40v-324h-40v324z" />
    <glyph glyph-name="uniE638" unicode="&#xe638;" 
d="M842 473q-11 44 -34 83l65 99l-93 92l-98 -65q-39 23 -83 35l-23 115h-131h-1l-23 -115q-44 -12 -83 -35l-98 65l-93 -92l65 -99q-22 -39 -34 -83l-116 -23v-131l116 -24q12 -43 34 -82l-65 -99l93 -92v-1l98 66q39 -23 83 -35l23 -115h1h131l23 115q44 12 83 35l98 -66
v1l93 92l-65 99q23 39 34 82l116 24v131zM666 384q0 -64 -46 -109.5t-110 -45.5t-109.5 45.5t-45.5 110t45.5 110t109.5 45.5t110 -45.5t46 -110.5zM666 384z" />
    <glyph glyph-name="uniE639" unicode="&#xe639;" 
d="M510.5 -145q-90.5 0 -173.5 35.5t-142.5 95t-95 142.5t-35.5 173.5t35.5 173.5t95 142.5t142.5 95t173.5 35.5t173.5 -35.5t142.5 -95t95 -142.5t35.5 -173.5t-35.5 -173.5t-95 -142.5t-142.5 -95t-173.5 -35.5zM510.5 709q-110.5 0 -204.5 -54.5t-148.5 -148.5
t-54.5 -204.5t54.5 -204.5t148.5 -148.5t204.5 -54.5t204.5 54.5t148.5 148.5t54.5 204.5t-54.5 204.5t-148.5 148.5t-204.5 54.5zM491 263q-8 0 -13.5 5.5t-5.5 13.5v330q0 8 5.5 14t13.5 6t14 -6t6 -14v-330q0 -8 -6 -13.5t-14 -5.5zM763 263h-272q-8 0 -13.5 5.5
t-5.5 13.5t5.5 13.5t13.5 5.5h272q8 0 13.5 -5.5t5.5 -13.5t-5.5 -13.5t-13.5 -5.5z" />
    <glyph glyph-name="uniE63A" unicode="&#xe63a;" 
d="M349 338zM311 337.5q0 15.5 11 27t27 11.5t27 -11.5t11 -27t-11 -26.5t-27 -11t-27 11t-11 26.5zM512 338zM474 337.5q0 15.5 11 27t27 11.5t27 -11.5t11 -27t-11 -26.5t-27 -11t-27 11t-11 26.5zM678 338zM640 337.5q0 15.5 11 27t26.5 11.5t27 -11.5t11.5 -27
t-11.5 -26.5t-27 -11t-26.5 11t-11 26.5zM511 -45l-81 84h-249q-32 0 -55 22.5t-23 55.5v450q0 32 23 55t55 23h673q33 0 55.5 -23t22.5 -55v-450q0 -33 -22.5 -55.5t-55.5 -22.5h-257zM181 614q-20 0 -33.5 -14t-13.5 -33v-450q0 -20 13.5 -34t33.5 -14h262l69 -70l73 70
h269q20 0 34 14t14 34v450q0 19 -14 33t-34 14h-673z" />
    <glyph glyph-name="uniE63B" unicode="&#xe63b;" 
d="M836.5 828q-56.5 0 -96.5 -40t-40 -97q0 -19 5 -37l-399 -168q-18 32 -49.5 50.5t-68.5 18.5q-57 0 -97 -40t-40 -97t40 -97t97 -40q59 0 100 44l257 -185q-16 -30 -16 -63q0 -57 40 -97t96.5 -40t96.5 40t40 96.5t-40 96.5t-97 40q-60 0 -101 -45l-256 185q16 30 16 65
q0 18 -5 37l399 167q19 -31 50 -49t68 -18q57 0 97 40t40 96.5t-40 96.5t-96.5 40zM665.5 179q42.5 0 72.5 -30t30 -72.5t-30 -72.5t-72.5 -30t-72.5 30t-30 72.5t30 72.5t72.5 30zM187.5 315q-42.5 0 -72.5 30.5t-30 73t30 72.5t72.5 30t72.5 -30t30 -72.5t-30 -73
t-72.5 -30.5zM836 589q-42 0 -72 30t-30 72.5t30 72.5t72 30t72 -30t30 -72.5t-30 -72.5t-72 -30z" />
    <glyph glyph-name="uniE63C" unicode="&#xe63c;" 
d="M511.5 831q-91.5 0 -174.5 -35.5t-143 -95.5t-95.5 -143t-35.5 -174t35.5 -174t95.5 -143t143 -95.5t174.5 -35.5t174.5 35.5t143 95.5t95.5 143t35.5 174t-35.5 174t-95.5 143t-143 95.5t-174.5 35.5zM514 3q-157 0 -273 106l22 26q27 10 71.5 25t70 24t25.5 12v37
q-46 7 -76 7q-26 0 -42 6t-33 28q24 42 45.5 119.5t21.5 124.5h1q3 67 51.5 113t115.5 46t115.5 -46t52.5 -113q0 -47 21.5 -124.5t45.5 -119.5q-17 -22 -33 -28t-42 -6q-6 0 -13.5 -0.5t-14.5 -1.5t-14.5 -2t-13 -2t-10.5 -2t-7 -2h-3v-34q0 -3 25 -12t69.5 -25t70.5 -26
l14 -33q-113 -97 -263 -97z" />
    <glyph glyph-name="uniE63D" unicode="&#xe63d;" 
d="M511.5 831q-91.5 0 -174.5 -35.5t-143 -95.5t-95.5 -143t-35.5 -174t35.5 -174t95.5 -143t143 -95.5t174.5 -35.5t174.5 35.5t143 95.5t95.5 143t35.5 174t-35.5 174t-95.5 143t-143 95.5t-174.5 35.5zM513 3q-89 0 -168.5 37t-135.5 102l16 26q62 27 183 63q4 1 4.5 4
t0.5 17q0 30 -7 45q-14 30 -18 62q-18 20 -26 64q-7 33 0 53q1 3 2 4q4 19 -6 75q-4 18 3 46.5t26 52.5q38 50 112 55h34q75 -5 114 -55q19 -24 25.5 -52.5t3.5 -46.5q-11 -56 -6 -75q0 -2 1 -4q7 -20 1 -53q-9 -44 -27 -64q-4 -32 -18 -61q-13 -28 -13 -46q0 -13 1 -16
t5 -4q104 -31 177 -62l17 -32q-56 -64 -134.5 -99.5t-166.5 -35.5z" />
    <glyph glyph-name="uniE63E" unicode="&#xe63e;" 
d="M654 600l-153 -128l-154 128q-19 15 -37 -3q-15 -19 3 -37l148 -122q-3 -3 -3 -14h-142q-13 0 -21 -8t-8 -20.5t8 -20.5t21 -8h142v-85h-142q-13 0 -21 -8t-8 -21t8 -20.5t21 -7.5h142v-114q0 -13 8 -21t20.5 -8t20.5 8t8 21v114h142q13 0 21 7.5t8 20.5t-8 21t-21 8
h-142v85h142q13 0 21 8t8 20.5t-8 20.5t-21 8h-134l165 136q9 7 9.5 18t-6.5 19q-6 9 -17 9.5t-20 -6.5zM512 839q-92 0 -176.5 -36t-145.5 -97t-97 -145.5t-36 -176.5t36 -176.5t97 -145.5t145.5 -97t176.5 -36t176.5 36t145.5 97t97 145.5t36 176.5t-36 176.5t-97 145.5
t-145.5 97t-176.5 36zM512 -14q-108 0 -199.5 53.5t-145 145t-53.5 199.5t53.5 199.5t145 145t199.5 53.5t199.5 -53.5t145 -145t53.5 -199.5t-53.5 -199.5t-145 -145t-199.5 -53.5z" />
    <glyph glyph-name="uniE63F" unicode="&#xe63f;" 
d="M672 531h-96l38 39q20 19 0.5 38t-38.5 0l-64 -70l-70 70q-20 19 -39 0t0 -38l45 -39h-90q-27 0 -45.5 -19.5t-18.5 -44.5q0 -24 14 -41.5t38 -22.5v-211q0 -10 8 -18t17 -8h301q10 0 18 8t8 18v205q20 5 35.5 23t15.5 41q-5 29 -27 49.5t-50 20.5zM358 448q-19 0 -19 13
q0 6 5.5 12.5t13.5 6.5h135v-32h-135zM640 211h-250v186h103v-109q0 -10 8 -18t17.5 -8t17.5 8t8 18v109h96v-186zM672 448h-128v32h134q6 0 13 -5.5t7 -13.5q-13 -13 -26 -13zM512 896q-138 0 -256 -69t-187 -187t-69 -256t69 -256t187 -187t256 -69t256 69t187 187t69 256
t-69 256t-187 187t-256 69zM506 -90q-97 0 -185 37.5t-151 101t-100.5 151t-37.5 184.5t37.5 184.5t100.5 151t151 101t184.5 37.5t184.5 -37.5t151 -101t100.5 -151t37.5 -184.5t-37.5 -184.5t-100.5 -151t-151 -101t-184 -37.5zM506 -90z" />
    <glyph glyph-name="uniE640" unicode="&#xe640;" 
d="M715 569h-124l50 50q25 25 0 49.5t-50 0.5l-83 -91l-91 90q-24 25 -49 0q-25 -24 0 -49l58 -50h-116q-36 0 -59.5 -25t-23.5 -58q0 -31 17.5 -53.5t48.5 -28.5v-273q0 -13 10.5 -23t22.5 -10h389q12 0 22.5 10t10.5 23v265q26 6 46 29.5t20 53.5q-6 37 -34 63.5t-65 26.5
zM310 462q-12 0 -18.5 5t-6.5 11q0 8 7 16.5t18 8.5h174v-41h-174zM674 156h-323v240h133v-141q0 -12 10 -22.5t22.5 -10.5t23 10.5t10.5 22.5v141h124v-240zM715 462h-165v41h173q8 0 16.5 -6.5t8.5 -17.5q-16 -17 -33 -17zM511.5 882q-101.5 0 -194 -40t-159.5 -107
t-107 -159.5t-40 -194t40 -194t107 -159.5t159.5 -107t194 -40t194 40t159.5 107t107 159.5t40 194t-40 194t-107 160t-159.5 107t-194 39.5zM505 -62q-126 0 -226 57.5t-155 158.5t-55 228q0 126 57 227.5t158.5 158.5t228.5 57t228.5 -57t159 -158.5t57.5 -227.5
t-59.5 -228t-163 -159t-230.5 -57zM505 -81z" />
    <glyph glyph-name="uniE641" unicode="&#xe641;" 
d="M510 874q-102 0 -195 -40t-160 -107t-106.5 -160t-39.5 -195t39.5 -195t106.5 -160t160 -107t195 -40t195 40t160 107t107 160t40 195t-40 195t-107 160t-160 107t-195 40zM510 -105q-97 0 -185.5 37.5t-152 101.5t-101.5 152.5t-38 185.5t38 185.5t101.5 152t152 101.5
t185.5 38t185.5 -38t152.5 -101.5t101.5 -152t37.5 -185.5t-37.5 -185.5t-101.5 -152.5t-152.5 -101.5t-185.5 -37.5zM703 624h-385q-39 -8 -47 -46v-412q9 -40 50 -46h377q45 6 51 50v405q-6 40 -46 49zM717 156q-5 -5 -12.5 -7.5t-14.5 -2.5t-19.5 1t-20.5 1h-287
q-4 0 -14.5 -0.5t-15 0t-11.5 1t-11.5 2.5t-6.5 5q-5 5 -7 19t-1.5 27t1 32t0.5 24v217v55v13v13q0 5 0.5 12t2 10.5t4 8t6.5 6.5t10 3t58 1h281q8 0 18.5 1t15 1t10.5 -2t11 -6q2 -2 3.5 -4.5t2.5 -6.5t1.5 -7t0.5 -9v-9v-11v-11v-274q0 -2 1.5 -32t0 -47.5t-6.5 -23.5z
M510 446q30 20 89 61.5t89 60.5q2 -4 6 -11.5t5 -9.5q-33 -25 -96.5 -68.5t-91.5 -64.5q-27 19 -190 132q2 2 6 10.5t7 11.5q16 -11 79 -54.5t97 -67.5zM509 339q3 2 28 26q0 1 7 8.5t12 12t9 5.5q5 0 10.5 -4.5t5.5 -10.5q0 -8 -18.5 -23t-20.5 -20q4 -1 17.5 -0.5t21 -1
t8.5 -8.5q3 -12 -7.5 -15.5t-31 -2t-27.5 0.5v-39q12 -3 27.5 -1t28 -1t10.5 -15q-1 -8 -12.5 -10t-28.5 -0.5t-24 0.5q-2 -10 -0.5 -21.5t-0.5 -21t-11 -10.5q-6 -1 -9.5 2t-4.5 8.5t-1 12.5t0.5 14.5t-0.5 14.5q-12 3 -26.5 1t-27 0.5t-13 12.5t10.5 12.5t29.5 1
t25.5 -0.5q2 2 1.5 19t-0.5 20q-11 3 -25.5 1t-27.5 0t-13 12q-1 5 1.5 8.5t8 4.5t10.5 1.5t13.5 0t13.5 0.5q-4 5 -19 20q-2 1 -7.5 6t-8.5 8.5t-3 7.5q0 6 5 11t10 5q4 0 9 -4.5t11 -12t8 -9.5zM510 339z" />
    <glyph glyph-name="uniE642" unicode="&#xe642;" 
d="M593 456l-117 -176l102 -19v-36l-125 24v-56l125 -23v-36l-125 23v-116l-47 8v117l-125 23v35l125 -23v56l-125 23v36l102 -19l-118 220l51 -10l114 -215l113 174zM856 714h-692q-35 0 -62 -22.5t-34 -56.5v0q-1 -2 -1 -4v-3v-1q-1 -2 -1 -5v-6v-514q0 -40 28.5 -75.5
t68.5 -44.5l557 -128q40 -9 68 13.5t28 63.5v73h40q41 0 70 28.5t29 69.5v514q0 40 -29 69t-70 29zM767 -69q0 -30 -26 -30q-5 0 -10 2l-557 127q-24 5 -41.5 27t-17.5 45v514v1l2 10q5 21 28 21q4 0 8 -1l557 -107q23 -5 40 -25.5t17 -43.5v-540zM905 102
q0 -20 -14.5 -34.5t-34.5 -14.5h-40v418q0 41 -28 75t-68 42l-398 77h534q20 0 34.5 -14.5t14.5 -34.5v-514z" />
    <glyph glyph-name="uniE643" unicode="&#xe643;" 
d="M916 -44h-812q-17 0 -29 11.5t-12 28.5v617q0 17 12 29t29 12h812q17 0 29 -12t12 -29v-617q0 -17 -12 -28.5t-29 -11.5zM104 625q-5 0 -9 -3.5t-4 -8.5v-617q0 -5 4 -8.5t9 -3.5h812q5 0 9 3.5t4 8.5v617q0 5 -4 8.5t-9 3.5h-812zM510 229l-441 346l17 22l424 -332
l424 332l18 -22zM96 -33l-21 20l289 289l21 -20zM663 277l290 -290l-20 -20l-290 290z" />
    <glyph glyph-name="uniE644" unicode="&#xe644;" 
d="M548 659q88 0 162.5 -43t117.5 -117.5t43 -162.5q0 -7 5.5 -12.5t13 -5.5t12.5 5.5t5 12.5q0 98 -48 180.5t-130.5 130.5t-180.5 48q-7 0 -12.5 -5t-5.5 -12.5t5.5 -13t12.5 -5.5zM548 480q60 0 102 -42.5t42 -101.5q0 -8 5 -13t12.5 -5t13 5t5.5 13q0 74 -53 127
t-127 53q-7 0 -12.5 -5.5t-5.5 -13t5.5 -12.5t12.5 -5zM548 300q15 0 25.5 10.5t10.5 25.5t-10.5 25.5t-25.5 10.5t-25.5 -10.5t-10.5 -25.5t10.5 -25.5t25.5 -10.5zM907 67q0 22 -16 38q-4 4 -9 7l-153 119q-16 15 -38 15q-17 0 -32 -11l-42 -42h-1q-10 -12 -26 -12
q-19 0 -30 15v-1q-90 65 -154 152v1h2q-16 11 -16 30q0 17 13 27l42 42q11 15 11 33q0 22 -16 38l-118 152q-4 6 -8 10q-15 15 -38 15q-57 0 -109 -56.5t-52 -131.5q0 -42 18 -81l-1 -1q81 -161 211.5 -291.5t291.5 -211.5l1 1q38 -18 81 -18q74 0 131 52t57 109v1v0z
M719 -59q-34 0 -66 14q-3 2 -6 3q-153 78 -276 201t-202 276q0 4 -2 6q-14 32 -14 66q0 61 42 106.5t83 45.5q8 0 13 -5q1 -1 2 -3q1 -1 2 -3l119 -152q1 -1 3 -4q5 -5 5 -12q0 -5 -3 -9l-40 -40v-1q-23 -21 -23 -52q0 -29 20 -49q1 -2 1 -3q67 -92 161 -160h2v-1
q21 -20 50 -20t50 20l2 2l40 41q4 2 9 2q8 0 13 -5l3 -3l152 -118q2 -1 3.5 -2t3.5 -3q5 -5 5 -12v-4q-2 -41 -47.5 -81.5t-104.5 -40.5z" />
    <glyph glyph-name="uniE645" unicode="&#xe645;" 
d="M392 746h-326v-326h326v326zM361 451h-264v264h264v-264zM66 -144h326v326h-326v-326zM97 151h264v-264h-264v264zM631 746v-326h326v326h-326zM927 451h-265v264h265v-264zM81 330h861v-31h-861v31zM490 167h31v-297h-31v297zM680 167h30v-297h-30v297zM869 167h30v-297
h-30v297zM490 731h31v-294h-31v294z" />
    <glyph glyph-name="uniE646" unicode="&#xe646;" horiz-adv-x="1179" 
d="M1104 812h-1029q-31 0 -53 -22t-22 -53v-708q0 -30 22 -52t53 -22h55q6 -16 19 -31q4 -3 9 -5q107 -27 122 -70q6 -17 -5 -32q-4 -6 -3.5 -13t6.5 -11.5t13.5 -4t11.5 6.5q23 29 11 65q-20 60 -142 93q-9 10 -9 20q0 11 13 20l1 1q3 2 7 5q1 0 2 1l12 4q14 4 35 4
q47 0 108 -19q13 -5 21 -9q2 -2 6 -4q13 -7 26 -16h1l1 -1q37 -26 63.5 -50.5t36.5 -40t17 -29t5 -18t-1 -6.5v0q-3 -7 -1 -14t9 -11q4 -2 8 -2q11 0 16 10q2 5 3.5 11.5t-0.5 21.5t-10 31.5t-29 41.5t-53 51h316q-32 -26 -53 -51t-29.5 -41.5t-10.5 -31.5t-0.5 -21.5
t4.5 -11.5q5 -10 16 -10q4 0 8 2q7 3 9 10t-1 14q-1 1 -1 3t1 9t4 15t11.5 20.5t21 26.5t34.5 32.5t50 38.5q13 9 28 18l5 2q9 5 22 11q61 18 108 18q20 0 35 -4q8 -3 11 -4q0 -1 1 -1h1q5 -3 8 -6h1q12 -9 12 -20v-1q0 -9 -8 -19q-122 -33 -142 -93q-12 -36 10 -65
q5 -6 12.5 -6.5t13 4t6.5 11.5t-4 13q-10 14 -4 32q14 42 122 70q5 2 8 5q14 15 19 31q30 1 51.5 22.5t21.5 51.5v708q0 31 -22 53t-52 22zM190 469h158q22 -74 -8 -159l-2 -5q-9 -25 -13 -41.5t-0.5 -53t20.5 -80.5q25 -64 -1 -103q-1 1 -3 1l-2 1q-31 12 -61 16q-1 0 -3 1
h-2q-14 1 -27 1h-6q-10 0 -20 -1q-1 0 -3 -0.5t-3 -0.5l-2 -1h-2q15 68 -9 103q-16 25 -17 85t17 116q13 37 -11 121zM891 130q17 44 20 80.5t-0.5 53t-12.5 41.5l-2 5q-30 85 -9 159h159q-24 -84 -11 -121q18 -56 17 -116.5t-18 -84.5q-23 -35 -9 -103l-3 1h-2h-2
q-11 2 -24 2h-1h-2q-48 0 -99 -20q-26 39 -1 103zM1142 29q0 -15 -10.5 -26.5t-26.5 -11.5q-4 10 -11 19l-2 2l-1 1l-1 1q-3 4 -8 7q-2 1 -4 3q-3 2 -8 5l-2 1l-1 1h-1h-1v1q-20 67 -1 95q22 34 23.5 104t-19.5 129q-9 29 16 109h7q7 0 12 5.5t5 13t-5 12.5t-12 5h-21h-195
h-16q-7 0 -12.5 -5t-5.5 -13q0 -10 10 -15q-21 -83 11 -174l2 -5q8 -22 11 -36t0 -45t-17 -69q-30 -77 1 -131q-18 -9 -36 -21h-410q-1 0 -2 0.5t-2 1.5q-14 9 -29 17q-1 1 -2 1.5t-2 1.5q32 53 2 130q-15 38 -18 69t0 45t11 36l2 5q33 91 12 174q9 5 9 15q0 8 -5 13t-12 5
h-16h-196h-20q-7 0 -12.5 -5t-5.5 -12.5t5.5 -13t12.5 -5.5h7q25 -81 15 -109q-20 -58 -18.5 -129t23.5 -104q18 -28 -2 -96h-1q-1 -1 -2 -1.5t-2 -1.5q-5 -2 -8 -4l-3 -3q-5 -4 -9 -7q0 -1 -0.5 -1t-0.5 -0.5t-1 -1t-1 -1.5q-2 -2 -6 -8t-6 -11h-56q-16 0 -27 11t-11 27
v708q0 17 11 28t27 11h1030q16 0 27 -11t11 -28v-708zM551 552.5q0 7.5 -5 12.5t-13 5q-60 0 -136 56q-10 7 -13 9q-7 4 -14 2t-10.5 -8.5t-2 -13.5t8.5 -11q2 -1 10 -7q85 -62 157 -62q8 0 13 5t5 12.5zM807 635q-3 -2 -13 -9q-76 -56 -137 -56q-7 0 -12 -5t-5 -12.5
t5 -12.5t12 -5q73 0 158 62q8 6 10 7q7 4 8.5 11t-2 13.5t-11 8.5t-13.5 -2zM717 150l-121 54q-7 3 -15 -1l-106 -53q-7 -4 -9 -11t1 -13.5t10 -9t14 1.5l99 50l112 -51q3 -1 7 -1q12 0 16 10q4 7 1 14t-9 10z" />
    <glyph glyph-name="uniE647" unicode="&#xe647;" 
d="M527.5 230q-8.5 0 -14.5 6l-293 288q-6 6 -6 14t6 14.5t14 6.5t15 -6l278 -274l279 274q6 6 14.5 6t14.5 -6.5t5.5 -14.5t-6.5 -14l-293 -288q-5 -6 -13.5 -6z" />
    <glyph glyph-name="uniE648" unicode="&#xe648;" 
d="M510 509q12 14 25 0l270 -310q6 -6 15 -7t15.5 5t7 15t-5.5 15l-270 310q-18 20 -44 20.5t-45 -20.5l-280 -309q-6 -7 -6 -16t7 -14.5t15.5 -5.5t14.5 7z" />
    <glyph glyph-name="uniE649" unicode="&#xe649;" 
d="M354 426q-22 -20 -21.5 -48t22.5 -47l330 -288q7 -7 16.5 -6t15.5 8t5.5 16.5t-7.5 15.5l-330 288q-15 14 0 27l330 299q7 7 7.5 16.5t-6 16.5t-16 7t-16.5 -6z" />
    <glyph glyph-name="uniE64A" unicode="&#xe64a;" 
d="M642 391q14 -12 0 -24l-309 -271q-7 -6 -7.5 -14.5t5 -15.5t14.5 -7.5t16 5.5l309 271q21 18 21 44t-20 44l-310 281q-7 6 -15.5 5.5t-14.5 -7t-5.5 -15.5t6.5 -15z" />
    <glyph glyph-name="uniE64B" unicode="&#xe64b;" 
d="M512 896q-139 0 -257 -68.5t-186.5 -186.5t-68.5 -257t68.5 -257t186.5 -186.5t257 -68.5t257 68.5t186.5 186.5t68.5 257t-68.5 257t-186.5 186.5t-257 68.5zM868 562l-453 -427l-222 236q-7 7 -7 17.5t8 18t18.5 7t17.5 -7.5l187 -199l416 392q8 8 18.5 7.5t17.5 -8.5
t7 -18.5t-8 -17.5z" />
    <glyph glyph-name="uniE64C" unicode="&#xe64c;" 
d="M1 288.5q0 42.5 30 72t72.5 29.5t72 -29.5t29.5 -72t-29.5 -72.5t-72 -30t-72.5 30t-30 72.5zM410 288.5q0 42.5 30 72t72 29.5t72 -29.5t30 -72t-30 -72.5t-72 -30t-72 30t-30 72.5zM819 288.5q0 42.5 29.5 72t72 29.5t72.5 -29.5t30 -72t-30 -72.5t-72.5 -30t-72 30
t-29.5 72.5z" />
    <glyph glyph-name="uniE64D" unicode="&#xe64d;" 
d="M523 370l90 90l2 2q14 14 28 9q12 -3 24 4.5t19 19.5q11 24 -9 44l-195 195q-22 22 -46 7q-31 -19 -20 -49q3 -6 -4 -13q-57 -58 -179 -180l-31 -31l-38 -38l-32 -32q-7 -8 -16 -5q-13 5 -26 -0.5t-21 -20.5q-14 -23 7 -44q91 -92 196 -197q9 -9 22 -11t23 4q29 19 20 50
q-2 6 2 11l97 97l470 -430l53 53zM131 -36h336v-112h-336v112z" />
    <glyph glyph-name="uniE64E" unicode="&#xe64e;" 
d="M422 -63h40h214h103h31q61 1 86 35q25 36 20 82q26 29 28 88q1 18 -6 36q26 30 29 73q2 33 -11 60q18 28 18 63q1 31 -12 56.5t-34 40.5t-43.5 23.5t-44.5 9.5l-118 -2q3 7 7 12q36 45 65 130q7 21 8 42.5t-3 38t-11.5 32.5t-15 26.5t-16.5 20t-12.5 13t-6.5 5.5l-6 4
l-2 1q-15 6 -32 6q-21 0 -39 -10q-37 -22 -44 -80q-5 -46 -36 -89t-63 -68q-8 -6 -11 -9q-22 -18 -58 -94l-7 -14q-15 -32 -50 -66h-29q-15 42 -43 42h-209q-23 0 -41.5 -19t-18.5 -43v-392q0 -23 17.5 -38.5t42.5 -15.5h314zM338 373h11q18 0 46 1h6l4 3q13 12 32.5 36
t28.5 42l7 15q34 70 51 85q2 2 9 7q9 7 21 18.5t33 35.5t37 57t20 67q5 43 29 57q11 6 24 6q10 0 19 -3l3 -2q4 -3 8.5 -7.5t13 -14.5t15 -22.5t12 -28t5 -34t-6.5 -37.5q-27 -79 -61 -122q-22 -32 -13 -51l3 -8l12 -1l132 3q16 -2 32.5 -7.5t34 -16.5t28.5 -31t10 -45
q0 -31 -18 -53l-6 -8l5 -9q14 -22 12 -52q-3 -40 -26 -61l-8 -7l4 -10q8 -17 7 -32q-2 -52 -24 -73l-6 -6l1 -8q7 -37 -14 -67q-16 -22 -61 -22h-31h-103h-214h-40h-90v424q1 -3 3 -8zM78 -9v392q0 12 9.5 22t20.5 10h194v-448h-194q-11 0 -20.5 6.5t-9.5 17.5z" />
    <glyph glyph-name="uniE64F" unicode="&#xe64f;" 
d="M512 241q-57 0 -98 40.5t-41 98t41 98t98 40.5t98 -40.5t41 -98t-41 -98t-98 -40.5zM512 479q-41 0 -70.5 -29t-29.5 -70.5t29.5 -70.5t70.5 -29t70.5 29t29.5 70.5t-29.5 70.5t-70.5 29zM960 365q-11 0 -17 10q-27 52 -72.5 98.5t-101.5 79.5q-119 70 -256 70h-2
q-137 0 -256 -70q-56 -33 -101.5 -79.5t-72.5 -98.5q-4 -7 -11.5 -9.5t-15 1t-9.5 11.5t1 15q29 56 78.5 107t110.5 87q63 36 133 56q72 19 144 19q73 0 144 -19q70 -20 133 -56q61 -36 110.5 -87t78.5 -107q3 -7 1 -15t-10 -11q-4 -2 -9 -2zM513 101h-2q-72 0 -142.5 19
t-133.5 56q-61 36 -110.5 86.5t-78.5 107.5q-3 7 -1 14.5t9.5 11.5t15 1.5t11.5 -9.5q27 -52 72.5 -98.5t101.5 -79.5q119 -71 256 -71h2q137 0 256 71q56 33 101.5 79.5t72.5 98.5q4 7 11.5 9.5t15 -1.5t9.5 -11.5t-1 -14.5q-29 -57 -78.5 -107.5t-111.5 -86.5
q-62 -37 -132.5 -56t-142.5 -19z" />
    <glyph glyph-name="uniE650" unicode="&#xe650;" 
d="M512 565q-70 0 -120 -49t-50 -119.5t50 -120.5t120 -50t120 50t50 120.5t-50 119.5t-120 49zM512 269q-52 0 -89.5 37.5t-37.5 90t37 89.5t90 37t90 -37t37 -89.5t-37.5 -90t-89.5 -37.5zM850 397q0 91 -45 169t-123 123.5t-170 45.5t-170 -45.5t-123 -123.5t-45 -169
q0 -94 46.5 -172t125.5 -122v-262h42l129 79l124 -79h43v265q76 45 121 122t45 169zM641 -103l-129 71l-124 -74v188q59 -23 124 -23q68 0 129 26v-188zM512 101q-65 0 -124 28l-4 1q-76 37 -122 108.5t-46 158.5q0 122 87 209t209 87t209 -87t87 -209.5t-86.5 -209
t-209.5 -86.5z" />
    <glyph glyph-name="uniE651" unicode="&#xe651;" 
d="M693 -53h-366q-17 0 -29.5 12.5t-12.5 29.5v353l-43 -45q-12 -12 -30 -12t-30 11l-108 104q-12 12 -12.5 29.5t11.5 30.5l169 175q23 23 35 23h107q30 0 37 -7l5 -5v-8q0 -33 23.5 -53.5t60.5 -20.5t60.5 20.5t23.5 53.5v7l5 6q7 7 37 7h107q12 0 35 -23l169 -175
q12 -12 11.5 -30t-12.5 -30l-108 -104q-12 -12 -29 -12q-18 0 -31 13l-43 45v-353q0 -17 -12.5 -29.5t-29.5 -12.5zM296 393q10 0 17.5 -8t7.5 -23v-373q0 -6 6 -6h366q6 0 6 6v373q0 15 7.5 23t17.5 8q12 0 23 -11l57 -60q5 -4 9 0l108 104q2 2 2 4.5t-2 4.5l-169 175
q-7 8 -14 12h-102h-7q-6 -42 -39 -68.5t-80 -26.5t-80 26.5t-39 68.5h-7h-102q-6 -4 -14 -12l-169 -175q-2 -2 -1.5 -4.5t1.5 -4.5l108 -104q4 -4 9 0l57 60q11 11 23 11z" />
    <glyph glyph-name="uniE652" unicode="&#xe652;" 
d="M853 533h-121l-63 103h-314l-63 -103h-121q-25 0 -52 -21.5t-27 -55.5v-414q0 -31 23.5 -54.5t49.5 -23.5h690q27 0 52 24t25 53v414q0 24 -21.5 51t-57.5 27zM897 41q0 -8 -9.5 -25t-15.5 -17h-724q-4 0 -12.5 16.5t-8.5 26.5v431q0 10 17 17t27 8h121l19 11l18 18
l55 74h257l47 -60l25 -32l19 -11h138q9 0 15.5 -6.5t8.5 -12t3 -7.5v-431zM512 436q-68 0 -116 -48t-48 -115.5t48 -115.5t116 -48t116 48t48 115.5t-48 115.5t-116 48zM512 145q-54 0 -92.5 38t-38.5 91.5t38.5 91t92.5 37.5t92.5 -37.5t38.5 -91t-38.5 -91.5t-92.5 -38z
" />
    <glyph glyph-name="uniE653" unicode="&#xe653;" 
d="M250 -48q4 -2 9 -2q6 0 11 3l53 35q1 0 2 2l61 40q45 -9 89 -9q112 0 207.5 48.5t151 131.5t55.5 180.5t-55.5 180.5t-151 131.5t-208 48.5t-207.5 -48.5t-150.5 -131.5t-55.5 -180q0 -90 47.5 -168t131.5 -129v-116q0 -12 10 -17zM99 382q0 87 50.5 161t137 117.5
t188.5 43.5t188.5 -43.5t137 -117.5t50.5 -161.5t-50.5 -161.5t-137 -117t-188.5 -43q-44 0 -89 9q-8 2 -15 -3l-70 -46l-2 -2l-21 -13v91q0 11 -9 17q-80 45 -125 116t-45 153zM938 312l-31 -23q41 -56 41 -122q0 -58 -32 -109t-89 -83q-10 -6 -10 -17v-57l-7 4l-2 2
l-51 34q-7 4 -14 2q-69 -13 -131 0.5t-111 50.5l-23 -31q54 -41 123 -56.5t141 -2.5l43 -28l2 -2l38 -25q5 -3 11 -3q5 0 9 2q10 5 10 17v82q62 38 97 96t35 124q-1 79 -49 145z" />
    <glyph glyph-name="uniE654" unicode="&#xe654;" 
d="M661 312l-1 -1l1 1v0zM768 197q-9 0 -15.5 -7t-6.5 -16v-57v-24q0 -26 -19 -45t-45 -19h-468q-27 0 -45.5 19t-18.5 45v582q0 26 18.5 45t45.5 19h468q26 0 45 -19t19 -45v-24v-57q0 -9 6.5 -16t16 -7t16 7t6.5 16v57v33q0 41 -29.5 70.5t-70.5 29.5h-486
q-42 0 -71 -29.5t-29 -70.5v-600q0 -41 29 -70.5t71 -29.5h486q41 0 70.5 29.5t29.5 70.5v33v57q0 9 -7 16t-16 7zM692 427q-8 0 -13.5 -5.5t-5.5 -13.5t5.5 -13.5t13.5 -5.5t13.5 5.5t5.5 13.5t-5.5 13.5t-13.5 5.5zM766 427q-8 0 -13.5 -5.5t-5.5 -13.5t5.5 -13.5
t13.5 -5.5t13.5 5.5t5.5 13.5t-5.5 13.5t-13.5 5.5zM819 408q0 8 -5.5 13.5t-13.5 5.5t-13.5 -5.5t-5.5 -13.5t5.5 -13.5t13.5 -5.5t13.5 5t5.5 13v1zM919 512q0 12 -9 20.5t-21 8.5h-249q-13 0 -21.5 -8.5t-9.5 -20.5v-2v-208q0 -12 9 -21t22 -9h80l38 -33h1v0l1 -1h1v0h1
v-1h1v0h1h1h1l1 1h1v0h1v1h1v0l38 33h81q12 0 21 9t9 21v208v2zM880 322q0 -5 -3 -8.5t-8 -3.5q-74 -1 -76 -2l-29 -24l-28 24l-76 2q-5 0 -8.5 3.5t-3.5 8.5v168q0 5 3.5 8.5t8.5 3.5h209q5 0 8 -3.5t3 -8.5v-168zM637 600.5q0 9.5 -6.5 16t-15.5 6.5h-389
q-10 0 -16.5 -6.5t-6.5 -16t6.5 -16t16.5 -6.5h389q9 0 15.5 6.5t6.5 16zM226 484q-10 0 -16.5 -6.5t-6.5 -15.5q0 -10 6.5 -16.5t16.5 -6.5h252q9 0 15.5 6.5t6.5 16.5q0 9 -6.5 15.5t-15.5 6.5h-252z" />
    <glyph glyph-name="uniE655" unicode="&#xe655;" 
d="M517.5 735q-89.5 0 -171 -35t-140 -94t-93.5 -140.5t-35 -170.5q0 -101 44 -191q7 -16 -33 -136q-10 -30 -14.5 -44.5t-7.5 -28.5t-2 -21t5 -12q7 -9 20 -9q16 0 82 25q95 34 122 34q7 0 9 -1q99 -56 215 -56q89 0 170.5 35t140.5 94t94 140.5t35 170.5t-35 170.5
t-94 140.5t-140.5 94t-171 35zM90 -129v17v-17zM518 -110q-106 0 -198 52q-10 6 -26 6q-33 0 -134 -37q-43 -16 -58 -20q4 16 20 66q24 71 32 107.5t-1 54.5q-40 83 -40 176q0 110 54 203.5t147.5 147.5t203 54t203 -54t148 -147.5t54.5 -203.5t-54.5 -203t-148 -147.5
t-202.5 -54.5zM510 406q-46 0 -78.5 -33t-32.5 -78.5t32.5 -78.5t78.5 -33t78.5 33t32.5 78.5t-32.5 78.5t-78.5 33zM510.5 218q-31.5 0 -54 22.5t-22.5 54t22.5 53.5t54 22t53.5 -22t22 -53.5t-22 -54t-53.5 -22.5zM510.5 566q-112.5 0 -192.5 -79.5t-80 -192t80 -192
t192.5 -79.5t192 79.5t79.5 192t-79.5 192t-192 79.5zM510 58q-98 0 -167 69.5t-69 167t69 167t167 69.5t167.5 -69.5t69.5 -167t-69.5 -167t-167.5 -69.5z" />
    <glyph glyph-name="uniE656" unicode="&#xe656;" 
d="M628 -67h-1q-11 0 -17 9q-16 25 -42 39t-56 14t-56 -14t-42 -39q-6 -9 -17 -9q-6 0 -11 2l-199 115q-7 4 -9 12t1 15q29 57 -2 112q-15 26 -40.5 41.5t-56.5 16.5q-11 1 -16 11l-1 1q-3 4 -3 10v228q0 9 6 14.5t14 6.5q30 1 55.5 16.5t41.5 41.5q32 57 1 114q-5 10 0 20
q3 5 8 8l199 115q7 4 15 2t12 -9q16 -27 42.5 -41.5t57.5 -14.5t57.5 14.5t42.5 41.5q4 7 12 9t15 -2l199 -115q5 -3 8 -8q5 -10 0 -20q-31 -57 1 -114q16 -26 41.5 -41.5t55.5 -16.5q8 -1 14 -6.5t6 -14.5v-228q0 -6 -3 -10l-1 -1q-5 -10 -16 -11q-31 -1 -56.5 -16.5
t-40.5 -41.5q-31 -55 -2 -112q3 -7 1 -15t-9 -12l-199 -115q-5 -2 -10 -2zM512 36q74 0 121 -56l167 97q-25 69 12 132q37 65 111 77v193q-74 12 -111 77q-38 65 -11 136l-166 96q-47 -59 -123 -59t-123 59l-166 -96q27 -71 -11 -136q-37 -65 -111 -77v-193q74 -12 111 -77
q37 -63 12 -132l167 -97q47 56 121 56zM512 191q-79 0 -135 56t-56 135.5t56 135.5t135 56t135 -56t56 -135.5t-56 -135.5t-135 -56zM512 533q-62 0 -106 -44t-44 -106.5t44 -106.5t106 -44t106 44t44 106.5t-44 106.5t-106 44z" />
    <glyph glyph-name="uniE657" unicode="&#xe657;" 
d="M513 136q66 0 112.5 48t46.5 116t-46.5 116t-112.5 48t-112.5 -48t-46.5 -116t46.5 -116t112.5 -48zM513 426q50 0 85.5 -37t35.5 -89t-35.5 -89t-85.5 -37t-85.5 37t-35.5 89t35.5 89t85.5 37zM57 298q57 -147 182.5 -234.5t278 -87.5t278 87.5t182.5 234.5l3 7l-3 7
q-57 147 -182.5 234.5t-278 87.5t-278 -87.5t-182.5 -234.5l-3 -7zM517.5 596q138.5 0 253 -79t168.5 -212q-54 -133 -168.5 -212t-253 -79t-253.5 79t-169 212q54 133 169 212t253.5 79z" />
    <glyph glyph-name="uniE658" unicode="&#xe658;" 
d="M757 197v437h-331v-211q0 -112 -11.5 -168t-46.5 -108q16 -7 29 -18q53 88 56 182h123v-155h29v155h120v-114q1 -17 -8.5 -25t-29.5 -7q-24 0 -49 2q5 -17 7 -31h49q65 0 63 61zM576 340h-121v34q2 29 2 47v38h119v-119zM576 486h-119v121h119v-121zM725 340h-120v119
h120v-119zM725 486h-120v121h120v-121zM511.5 -120q-102.5 0 -195.5 40q-91 38 -160.5 108t-108.5 161q-39 94 -39 197t39 196q39 91 108.5 161t160.5 108q93 40 195.5 40t196.5 -40q90 -38 160 -108t108 -161q40 -93 40 -196t-40 -197q-38 -91 -108 -161t-160 -108
q-94 -40 -196.5 -40zM512 871q-98 0 -187.5 -38.5t-154.5 -103.5t-103.5 -155t-38.5 -188.5t38.5 -188t103.5 -154.5t154.5 -103.5t187.5 -38.5t187.5 38.5t154.5 103.5t103 154.5t38 188t-38 188.5t-103 155t-154.5 103.5t-187.5 38.5zM343 129h-29v341q-29 -58 -58 -99
q-7 18 -16 32q79 118 117 262l31 -7q-20 -65 -45 -123v-406z" />
    <glyph glyph-name="uniE659" unicode="&#xe659;" 
d="M508 158q-7 0 -13 4t-6 11v53v34h-9l-1 1h-4h-71h-64q-10 0 -16 4q-7 5 -6 11q0 6 7 9q6 3 14 3h71h79v87h-150q-11 0 -18 5q-4 4 -3.5 9t5.5 8q6 3 16 3h56h77l-7 13l-1 1q-1 2 -2 3q-64 96 -122 181q-2 4 1 7q7 8 19 8q14 0 20 -10q29 -42 87 -127q23 -32 34 -48
l10 -15l9 12q1 2 2 3q13 19 32 47q57 86 86 129q6 10 20 10q11 0 18 -7q4 -4 1 -9q-12 -17 -36 -53l-85 -127l-2 -3l-10 -15h78h54q11 0 17 -6q5 -4 4 -9q0 -6 -5 -9q-7 -3 -13 -3q-10 -1 -24 -1h-13h-12h-104v-87h148q10 0 16 -3q7 -4 7 -9.5t-6.5 -10t-15.5 -4.5h-149v-14
v-21q-1 -32 0 -48q0 -14 -15 -17h-5zM1024 384q0 -104 -40.5 -199t-109 -163.5t-163.5 -109t-199 -40.5t-199 40.5t-163.5 109t-109 163.5t-40.5 199t40.5 199t109 163.5t163.5 109t199 40.5t199 -40.5t163.5 -109t109 -163.5t40.5 -199zM1001 384q0 99 -38.5 190
t-104 156.5t-156.5 104t-190 38.5t-190 -38.5t-156.5 -104t-104 -156.5t-38.5 -190t38.5 -190t104 -156.5t156.5 -104t190 -38.5t190 38.5t156.5 104t104 156.5t38.5 190z" />
    <glyph glyph-name="uniE65A" unicode="&#xe65a;" 
d="M737 540h-346q-6 0 -10.5 -5t-4.5 -12t4.5 -12t10.5 -5h346q6 0 10.5 5t4.5 12t-4.5 12t-10.5 5zM272 523q0 -7 4 -12t10 -5h41q6 0 10 5t4 12t-4 12t-10 5h-41q-6 0 -10 -5t-4 -12zM737 351h-346q-6 0 -10.5 -5t-4.5 -12t4.5 -12t10.5 -5h346q6 0 10.5 5t4.5 12t-4.5 12
t-10.5 5zM327 351h-41q-6 0 -10 -5t-4 -12t4 -12t10 -5h41q6 0 10 5t4 12t-4 12t-10 5zM737 162h-346q-6 0 -10.5 -5t-4.5 -12t4.5 -12t10.5 -5h346q6 0 10.5 5t4.5 12t-4.5 12t-10.5 5zM327 162h-41q-6 0 -10 -5t-4 -12t4 -12t10 -5h41q6 0 10 5t4 12t-4 12t-10 5zM392 660
h241q14 0 24 10t10 25v86q0 14 -10 24t-24 10h-241q-14 0 -24 -10t-10 -24v-86q0 -15 10 -25t24 -10zM392 781h241v-86h-241v86zM839 815h-138v-34h138q21 0 36 -15.5t15 -36.5v-687q0 -22 -15 -37t-36 -15h-653q-21 0 -36.5 15t-15.5 37v687q0 21 15.5 36.5t36.5 15.5h137
v34h-137q-36 0 -61 -25t-25 -61v-687q0 -36 25 -61t61 -25h653q35 0 60.5 25t25.5 61v687q0 36 -25.5 61t-60.5 25z" />
    <glyph glyph-name="uniE65B" unicode="&#xe65b;" 
d="M750 233q-4 52 -24 85q15 27 10 65l-7 47q-1 6 -5 8t-7 1l-4 -1l-35 -5q-37 -3 -58 -17q-17 8 -39 16q-6 1 -9.5 -0.5t-4.5 -4.5l-1 -2q-2 -9 -4 -12q-9 2 -21 3t-19 1h-7h-3q-26 -1 -48 -4l-4 12q0 1 -0.5 2.5t-4 3.5t-9.5 1q-22 -8 -39 -16q-21 14 -58 17q-28 3 -35 5
q-14 5 -16 -8q-6 -35 -7 -47q-5 -38 10 -65q-20 -33 -24 -85q-1 -3 -1.5 -9.5t0 -26t4.5 -38t14.5 -44t27.5 -46.5l1 -84q-1 -11 11 -11h40q9 -1 12 7l10 23q5 -3 14.5 -8t40 -13.5t62.5 -9.5h2q31 1 60.5 9t42.5 14.5t13 7.5l10 -23q1 -4 4 -5.5t6 -1.5h2h40q6 0 8.5 2.5
t2.5 5.5v3l1 84q54 69 46 157zM690 80q-4 -5 -4 -12l-1 -75h-28l-12 27q-1 1 -2 3t-5 4t-9 -2q-6 -4 -15.5 -9.5t-39.5 -14.5t-60 -9h-1q-30 0 -59 8.5t-42.5 16t-13.5 8.5q-6 4 -9.5 2t-5 -4t-1.5 -3l-12 -27h-28l-1 75q0 7 -4 12q-19 25 -29.5 54.5t-11.5 46.5l-1 16
q-1 30 4.5 58t11.5 41l7 13q5 10 0 17q-5 9 -7.5 19.5t-1.5 16.5v6q0 8 1.5 19t3 20.5t1.5 10.5l28 -4q36 -2 57 -16q6 -4 12 -1l33 14l4 -12q3 -7 12 -5l52 4h1l52 -4q9 -2 12 5l4 12q25 -8 33 -14q6 -3 12 1q20 14 57 16q24 3 28 4q0 -1 1.5 -10.5t3 -20.5t1.5 -19
q2 -22 -9 -42q-5 -7 0 -17q3 -5 7 -14t10.5 -38.5t5.5 -59.5q1 0 -0.5 -16.5t-12 -46t-29.5 -54.5zM364 270q-1 0 -2.5 0.5t-4 3t-2.5 6.5q0 2 0.5 5t3.5 11.5t7.5 15t15 12t24.5 6.5q22 1 37 -15.5t14 -35.5q0 -1 -0.5 -2.5t-3 -4t-6.5 -2t-6.5 2.5t-2.5 5v2q1 15 -12 25
q-11 7 -22.5 6t-18.5 -8q-11 -9 -11 -24q1 -9 -10 -9zM663 270q1 0 2.5 0.5t4 3t2.5 6.5q-1 2 -1 5t-3 11.5t-7.5 15t-15 12t-24.5 6.5q-22 1 -37 -15.5t-14 -35.5q0 -1 0.5 -2.5t3 -4t6.5 -2t6.5 2.5t2.5 5v2q-1 15 12 25q11 7 22.5 6t18.5 -8q10 -9 11 -24q-1 -9 10 -9z
M513.5 271q-38.5 0 -66.5 -27.5t-28 -66.5t28 -66.5t66.5 -27.5t66 27.5t27.5 66.5t-27.5 66.5t-66 27.5zM513.5 102q-31.5 0 -53 22t-21.5 53t21.5 53t53 22t53 -22t21.5 -53t-21.5 -53t-53 -22zM476 178zM464 178q0 5 3.5 9t9 4t9 -4t3.5 -9t-3.5 -8.5t-9 -3.5t-9 3.5
t-3.5 8.5zM551 178zM538 178q0 5 3.5 9t9 4t9 -4t3.5 -9t-3.5 -8.5t-9 -3.5t-9 3.5t-3.5 8.5zM513.5 694q-49.5 0 -84 -34.5t-34.5 -84t34.5 -84t84 -34.5t84 34.5t34.5 84t-34.5 84t-84 34.5zM513.5 476q-41.5 0 -70.5 29t-29 70.5t29 70.5t70.5 29t70.5 -29t29 -70.5
t-29 -70.5t-70.5 -29zM515 577l44 49q1 0 2 1t4.5 1.5t6.5 -2.5t3.5 -6.5t-1.5 -5.5l-1 -2l-34 -36h19q9 0 10 -9q0 -4 -2 -6.5t-4 -3.5h-2h-35l-1 -44q1 -8 -8 -9h-2q-4 0 -6 2.5t-2 4.5v2v44h-36q-1 0 -2.5 0.5t-3.5 3t-1.5 6.5t3 6t4.5 2l2 1h19l-33 36q-7 8 0 14
q4 3 6.5 2.5t4.5 -1.5l2 -1z" />
    <glyph glyph-name="uniE65C" unicode="&#xe65c;" 
d="M462 522q-42 33 -42 84q0 45 32 76.5t77.5 31.5t77 -31.5t31.5 -76.5q0 -54 -44 -86q18 -3 40 -8q38 40 38 94q0 58 -42 99.5t-101 41.5t-100.5 -41.5t-41.5 -99.5q0 -50 32 -89q22 3 43 5zM959 259q-11 -16 -30 -26t-30.5 -9.5t-13.5 3.5q-11 119 -112.5 195t-253.5 76
q-66 0 -167 -19q-38 34 -79 34q-18 0 -36 -8q-27 -14 -32 -47q-5 -28 11 -53q-42 -38 -64.5 -74.5t-27.5 -88.5q-2 -5 -9 -5q-23 0 -34.5 -15t-15.5 -61.5t13 -76.5l3 -2q21 -19 60 -20q11 0 17 -1t14 -5t15 -12q16 -20 53 -43q9 -6 14 -9l-1 -1q-15 -39 -6 -70l1 -3
q12 -23 72 -23q30 0 45 6l3 1q2 -13 10 -21q9 -9 24 -10q9 -1 25 -1q12 0 39 1h4q20 6 23 37q16 -1 32 -1q60 0 96 9q-5 -20 2 -31q5 -9 16 -11l5 -1l3 1q3 0 15 -1q22 -1 33 -1q36 0 49 13q17 16 15 69q0 24 2 29q61 39 88 85.5t31 108.5q1 4 21 14t39.5 28t18.5 40z
M742 12q-8 -5 -12 -15t-4.5 -18.5t0.5 -24.5q0 -39 -5 -44l-2 -2q-5 -3 -24 -3q-10 0 -30 2h-11q0 1 1 5q6 23 -2 33t-24 7h-2q-39 -11 -102 -11q-22 0 -44 2h-2q-16 0 -19 -25q-1 -10 -2 -14q-19 -1 -31 -1q-15 0 -20 1h-5q-2 3 -1 23q1 25 -9 32l-2 2l-3 1q-8 2 -15 5
l-5 2l-5 -2q-17 -4 -15 -29v-7q-10 -3 -27 -3q-28 0 -41 6q-4 19 6 45q9 23 -2 33l-2 2q-8 6 -23 15q-32 21 -45 37q-12 13 -26 20t-22.5 8t-22.5 1q-26 1 -37 11q-9 19 -6 52t8 43q2 2 8 2q31 0 42 30l1 4q3 46 24.5 79t67.5 74l13 12l-12 12q-16 17 -13 39q3 16 14 22
q10 4 21 4q15 0 30.5 -8t21.5 -13t9 -8l7 -7l9 2q105 19 169 19q147 0 237 -70t90 -184q0 -75 -23 -118.5t-81 -79.5zM270 333q-21 0 -35.5 -14t-14.5 -33.5t14.5 -33.5t35 -14t35.5 14t15 33.5t-15 33.5t-35 14zM270 272q-7 0 -11.5 4t-4.5 9.5t4.5 9.5t11 4t11.5 -4
t5 -9.5t-5 -9.5t-11 -4zM532 545v8q20 1 29 11.5t9 19.5q0 27 -31 35q-1 1 -7 2v27q7 0 12 -6t10 -6.5t8 4t0 9.5q-9 14 -30 17v7q0 4 -5 4q-4 0 -4 -4v-7q-15 -1 -25.5 -9.5t-10.5 -23.5q0 -21 31 -30q3 0 5 -1v-31q-12 2 -16 12q-2 7 -10 7q-5 0 -8 -4t-1 -9q8 -22 35 -24
v-9q0 -4 4 -4q5 0 5 5zM532 599q16 -4 16 -14q0 -13 -16 -14v28zM509 636q0 12 14 12v-25q-14 4 -14 13zM509 636z" />
    <glyph glyph-name="uniE65D" unicode="&#xe65d;" 
d="M284 -76q-5 0 -9 3q-13 8 -4 22q10 17 30 28.5t39.5 17t40.5 8t31 2.5h15h423q27 0 46 19t19 46v516q0 27 -19 46t-46 19h-678q-27 0 -46 -19t-19 -46v-516q0 -25 17 -43.5t42 -21.5h6h51q7 0 11.5 -4.5t4.5 -11.5t-4.5 -11.5t-11.5 -4.5h-51h-9q-38 4 -63 31.5t-25 65.5
v516q0 40 28.5 68.5t68.5 28.5h678q40 0 68.5 -28.5t28.5 -68.5v-516q0 -40 -28.5 -68.5t-68.5 -28.5h-423q-33 1 -73.5 -8.5t-55.5 -33.5q-5 -7 -14 -7zM492 159q-5 0 -9.5 4.5t-4.5 9.5v9q0 5 -1.5 10.5t-12.5 15t-32 13.5q-52 7 -60 27q-3 7 -2 23q3 29 28 58l7 7
q4 7 6 17q-7 8 -5 18q1 7 1 12q1 16 -1 27q0 2 -1 5q-2 7 -6 11v1q-2 2 -6.5 4.5t-20 7.5t-35.5 7h-14q0 -2 -1 -3q0 -3 -2 -6q-4 -5 -10 -10q-8 -8 -8 -15q-4 -21 0 -40q2 -13 -5 -20q2 -9 6 -16l7 -7q25 -29 27 -58q2 -16 -1 -23q-8 -20 -61 -27q-13 -3 -22.5 -7.5
t-13.5 -9t-6.5 -10t-2.5 -6.5v-4q0 -6 -3.5 -10.5t-9.5 -4.5q-6 -1 -10.5 3t-4.5 10q-2 19 14 39.5t55 27.5q29 4 39 10q0 4 -1 10q-2 19 -21 41q-6 7 -8 10q-11 16 -12 33q0 9 6 15q-4 25 0 47q0 18 18 33q1 2 2 2q-2 4 -1 9q3 14 22 15h24q60 -5 82 -29q8 -10 12 -23
q1 -5 1 -8q2 -13 1 -32q0 -6 -1 -13q3 -4 4 -8q1 -3 1 -7q0 -18 -11 -34q-3 -4 -9 -10q-19 -22 -20 -41q-1 -7 -1 -10q0 -1 1 -2q14 -5 37 -8q40 -8 56 -28.5t14 -39.5v-7q1 -6 -3.5 -10t-9.5 -5h-1zM783 409h-218q-6 0 -10 4.5t-4 10t4 10t10 4.5h218q6 0 10 -4.5t4 -10
t-4 -10t-10 -4.5zM783 289h-218q-6 0 -10 4.5t-4 10t4 10t10 4.5h218q6 0 10 -4.5t4 -10t-4 -10t-10 -4.5zM783 173h-218q-6 0 -10 4t-4 10t4 10.5t10 4.5h218q6 0 10 -4.5t4 -10.5t-4 -10t-10 -4z" />
    <glyph glyph-name="uniE65E" unicode="&#xe65e;" 
d="M509 284q80 0 137 57t57 137.5t-57 137t-137 56.5t-137 -56.5t-57 -137t57 -137.5t137 -57zM509 644q69 0 117.5 -48.5t48.5 -117t-48.5 -117.5t-117.5 -49t-117.5 49t-48.5 117.5t48.5 117t117.5 48.5zM801 350q-40 0 -71 26q-11 9 -20 -2t2 -20q39 -32 89 -32
q59 0 100.5 41.5t41.5 100t-41.5 100.5t-100.5 42q-50 0 -89 -32q-11 -9 -2 -20t20 -2q31 26 71 26q48 0 81 -33.5t33 -80.5t-33 -80.5t-81 -33.5zM710 183q-15 24 -36.5 40t-41 22.5t-39.5 9t-29.5 2.5t-13.5 -1h-86h-12q-6 0 -24 -3.5t-34 -10t-35.5 -21t-33.5 -35.5
q-18 -26 -43 -108t-40 -148q-1 -5 2 -10t8.5 -6.5t10.5 1.5t6 9q15 64 39 144t40 102q13 20 32.5 33t38.5 17.5t28 6t16 1.5h1h88q3 1 10.5 1t25 -2t34 -7.5t35 -19t29.5 -32.5q0 -1 1 -2q17 -21 43 -100.5t40 -141.5q2 -11 13 -11q2 0 4 1q5 1 8 6t2 10q-14 60 -40 142.5
t-47 110.5zM216 322q51 0 90 32q11 9 2 20t-20 2q-31 -26 -72 -26q-47 0 -80.5 33.5t-33.5 80.5t33.5 80.5t80.5 33.5q41 0 72 -26q11 -9 20 2t-2 20q-39 32 -90 32q-59 0 -100.5 -42t-41.5 -100.5t41.5 -100t100.5 -41.5zM980 126q-22 101 -45 133q-16 24 -42.5 36.5
t-38.5 13.5t-20 1h-60q-3 0 -9.5 0.5t-21 -1t-28 -6t-29 -15t-26.5 -25.5q-8 -11 3.5 -19.5t19.5 3.5q13 18 35.5 27t36 8t17.5 0h62q2 1 14 -0.5t32 -11t32 -27.5q20 -27 41 -123q2 -11 13 -11h3q6 2 9 6.5t2 10.5zM338 242q7 -12 19 -5t5 19q-10 17 -26 29t-30 17t-29 7
t-22 2t-10 -1h-61h-8q-4 0 -18 -2.5t-25 -7.5t-26 -15.5t-25 -25.5q-22 -32 -44 -133q-2 -6 1.5 -10.5t8.5 -6.5h3q11 0 14 11q21 95 40 123q27 39 79 39h63q7 1 18.5 0.5t36 -10.5t36.5 -30z" />
    <glyph glyph-name="uniE65F" unicode="&#xe65f;" 
d="M842 618h-659q-48 0 -82 -34t-34 -82v-404q0 -48 34 -82t82 -34h659q57 4 86 35t29 81v404q0 51 -28.5 83t-86.5 33zM936 109q-5 -53 -40 -80.5t-66 -24.5h-657q-16 -2 -50 25.5t-34 58.5v318h847v-297zM936 427h-847v85q0 32 31 58t53 26h678q33 0 57.5 -26.5
t27.5 -57.5v-85zM745 67h85q27 0 34.5 12t7.5 52v42v2v3v4q0 3 -1 4.5t-2.5 3.5t-4 3t-5.5 1.5t-8 -0.5q-1 0 -1 -4.5v-10.5l1 -6v-64q0 -15 -4 -18t-21 -3h-78q-14 0 -13 -13q1 -5 2 -7t2.5 -2h3.5zM660 67h43q1 0 3.5 4t2 9.5t-5.5 7.5h-8h-35q-4 0 -3 -15q1 -6 3 -6z" />
    <glyph glyph-name="uniE660" unicode="&#xe660;" horiz-adv-x="1088" 
d="M816 864q7 0 11.5 4.5t4.5 11.5t-4.5 11.5t-11.5 4.5h-544q-7 0 -11.5 -4.5t-4.5 -11.5t4.5 -11.5t11.5 -4.5h544zM816 832h-608q-127 0 -177 -69q-42 -59 -14 -144q19 -58 74.5 -125t106.5 -107q5 -3 10 -3q8 0 13 6q9 13 -3 23q-47 36 -100 99.5t-71 116.5
q-23 69 10 116q40 55 151 55h48v-304q0 -61 23.5 -118.5t54 -95.5t71 -72.5t64 -49.5t44.5 -26q-1 -3 -1 -6v-80q0 -7 4.5 -11.5t11.5 -4.5t11.5 4.5t4.5 11.5v80q0 2 -1 5q23 11 49.5 26t72.5 49.5t80 73t60.5 96t26.5 118.5v304h48q111 0 151 -55q33 -47 10 -116
q-14 -43 -72 -114t-99 -102q-12 -10 -3 -23q5 -6 13 -6q5 0 10 3q45 35 105 109.5t76 122.5q28 85 -14 144q-50 69 -177 69h-64zM800 496q0 -55 -25 -107.5t-57.5 -88t-76 -68t-67.5 -46.5t-46 -24q-19 10 -40.5 24t-60 46.5t-67 68t-50.5 88t-22 107.5v304h512v-304zM352 0
q-27 0 -45.5 -18.5t-18.5 -45.5v-48q0 -7 4.5 -11.5t11.5 -4.5h448q7 0 11.5 4.5t4.5 11.5v46q0 28 -18.5 47t-45.5 19h-352zM736 -66v-30h-416v32q0 14 9 23t23 9h352q14 0 23 -10t9 -24z" />
    <glyph glyph-name="uniE661" unicode="&#xe661;" 
d="M706 643q5 0 8.5 3t3.5 8t-3.5 8.5t-8.5 3.5h-388q-5 0 -8.5 -3.5t-3.5 -8.5t3.5 -8t8.5 -3h388zM706 620h-434q-91 0 -126 -49q-31 -43 -10 -103q13 -42 53 -89.5t76 -76.5q3 -2 7 -2q6 0 9 4q7 9 -2 16q-34 27 -71.5 72t-50.5 83q-16 50 8 82q28 40 107 40h34v-217
q0 -43 17 -84t38.5 -68.5t51 -52.5t46 -35.5t31.5 -18.5q-1 -2 -1 -4v-57q0 -5 3.5 -8t8 -3t8 3t3.5 8v57q0 2 -1 4q17 8 35.5 18.5t51.5 35.5t57.5 52t43.5 68.5t19 84.5v217h34q79 0 107 -40q24 -33 8 -82q-11 -31 -52 -81.5t-70 -73.5q-9 -7 -2 -16q3 -4 9 -4q4 0 7 2
q32 25 75 78.5t54 87.5q20 60 -10 103q-35 49 -126 49h-46zM695 380q0 -39 -18 -77t-41 -63t-54 -48.5t-48.5 -33t-32.5 -17.5q-14 8 -29.5 18t-42.5 33t-47.5 48.5t-36.5 63t-16 76.5v217h366v-217zM375 26q-20 0 -33 -13t-13 -33v-34q0 -5 3.5 -8.5t8.5 -3.5h319
q5 0 8.5 3.5t3.5 8.5v33q0 19 -13.5 33t-32.5 14h-251zM649 -21v-22h-297v23q0 10 6.5 16.5t16.5 6.5h251q10 0 16.5 -7t6.5 -17z" />
    <glyph glyph-name="uniE662" unicode="&#xe662;" 
d="M524 -67q-91 0 -173.5 35t-142.5 95t-95.5 143t-35.5 173.5t35.5 173.5t95.5 143t142.5 95.5t173.5 35.5t174 -35.5t142.5 -95.5t95 -143t35.5 -173.5t-35.5 -173.5t-95 -143t-142.5 -95t-174 -35zM524 788q-110 0 -204.5 -55t-149 -149t-54.5 -204.5t54.5 -204.5
t149 -149t205 -55t204.5 55t148.5 149t54.5 204.5t-54.5 204.5t-148.5 149t-205 55zM524 788zM548 265q0 -10 -7 -17t-17 -7t-17 7t-7 17v363q0 10 7 17t17 7t17 -7t7 -17v-363zM547 111q0 -9 -7 -15.5t-16 -6.5t-15.5 6.5t-6.5 15.5v34q0 9 6.5 15.5t15.5 6.5t16 -6.5
t7 -15.5v-34z" />
    <glyph glyph-name="uniE663" unicode="&#xe663;" 
d="M431 812q3 12 14.5 22.5t24.5 10.5h81q15 0 27 -9.5t15 -23.5q15 -89 15 -90q1 -7 4 -12.5t5 -7.5l2 -2q25 -11 37 -16q6 -2 11 -1t8 3l3 1q66 47 79 56q9 7 24.5 7t22.5 -7q49 -48 62 -61q11 -11 12 -27.5t-7 -26.5q-46 -65 -53 -74q-10 -15 -4 -28q11 -30 13 -32
q1 -4 6 -8t10 -5q67 -11 95 -16q15 -2 25 -14.5t10 -30.5v-73q-1 -38 -35 -43q-83 -15 -92 -17q-14 -2 -20 -14q-10 -22 -12 -27q-7 -16 1 -27q47 -66 55 -78t8 -26t-13 -30q-41 -41 -54 -53q-12 -12 -28 -13.5t-29 8.5q-62 44 -70 50q-17 12 -30 6q-24 -10 -30 -13
q-12 -6 -15 -20q-12 -74 -15 -92q-7 -35 -50 -35h-68q-38 1 -45 37q-13 75 -15 87q-4 20 -18 25q-19 8 -24 10q-17 7 -31 -3q-55 -39 -72 -51q-15 -10 -31 -9t-27 13q-44 43 -54 53.5t-12.5 25.5t6.5 29q41 57 51 71q9 12 9.5 19t-4.5 16q0 1 -10 25q-6 14 -23 17
q-58 9 -83 14q-42 7 -42 46v71q0 17 9.5 30t24.5 16q9 1 41.5 6.5t43.5 7.5q15 3 21 6.5t9 12.5q11 24 13 30q4 11 -9 30q-33 47 -46 64q-11 15 -11.5 31.5t11.5 29.5q46 45 56 55.5t24 12t30 -8.5q56 -39 69 -48q13 -8 19 -10t15 2l32 13q10 4 13 21q13 79 15 92zM445 716
q-6 -34 -32 -45q-9 -3 -30 -12q-30 -13 -56 6q-15 11 -72 52q-11 8 -21 -1q-3 -2 -14 -13l-24 -25q-14 -13 -15 -15q-10 -9 -1 -22q2 -4 11.5 -16.5t22 -30t16.5 -23.5q20 -28 9 -56q-4 -8 -5 -11t-3 -7.5t-5 -12.5q-11 -26 -49 -33q-5 -1 -83 -14q-14 -2 -14 -15v-75
q0 -13 14 -16q4 -1 21 -4t39.5 -6.5t26.5 -4.5q32 -5 43 -30q4 -9 5.5 -12.5t3.5 -7.5t5 -13q12 -28 -11 -60l-46 -66q-10 -13 0 -23q7 -8 52 -52q9 -9 21 -1q3 2 18 13t34 24.5t22 15.5q25 18 58 5q11 -5 16 -7t8 -3t7 -3q9 -4 17.5 -17t10.5 -29q10 -69 14 -84
q5 -13 17 -13h73q14 0 16 12q0 1 13 80q7 42 38 54l26 11q29 11 55 -7q12 -9 28 -20t29.5 -20.5t15.5 -9.5q12 -9 21 0l15 15q11 11 24.5 24t13.5 14q9 9 2 20l-57 80q-14 19 -3 47q8 22 12 31q5 11 17 20t27 12q7 1 22.5 3.5t29.5 5t26.5 5t13.5 2.5q4 1 7 4.5t3 8.5v20v37
v20q0 13 -13 15l-96 16q-24 4 -38 36l-10 25q-12 29 6 55q4 6 13 19t17 24t15.5 22t8.5 12q6 8 -1 15l-54 54q-10 10 -20 3q-2 -1 -15 -10t-27 -19t-28 -19.5t-15 -10.5q-6 -4 -19 -5t-22 2l-36 15q-8 4 -17.5 15.5t-11.5 21.5q0 5 -3 20.5t-5.5 31t-5 30.5t-3.5 16
q-1 10 -12 10h-79q-5 0 -9 -4t-5 -8q0 -3 -14 -88zM703 384q0 -79 -56 -135t-135 -56t-135 56t-56 135.5t56 135.5t135 56t135 -56t56 -136zM512 606q-92 0 -156.5 -65t-64.5 -156.5t64.5 -156.5t156.5 -65t156.5 65t64.5 156.5t-64.5 156.5t-156.5 65z" />
    <glyph glyph-name="uniE664" unicode="&#xe664;" 
d="M342 419h340q9 0 16 7t7 16.5t-7 16t-16 6.5h-340q-10 0 -17 -6.5t-7 -16t7 -16.5t17 -7zM682 286h-340q-10 0 -17 -7t-7 -16.5t7 -16t17 -6.5h340q9 0 16 6.5t7 16t-7 16.5t-16 7zM682 106h-340q-10 0 -17 -6.5t-7 -16t7 -16.5t17 -7h340q9 0 16 7t7 16.5t-7 16t-16 6.5
zM788 685h-64q-10 0 -17 -7t-7 -16.5t7 -16t17 -6.5h64q31 0 53 -21.5t22 -51.5v-596q0 -30 -22 -51.5t-53 -21.5h-552q-31 0 -53 21.5t-22 51.5v596q0 30 22 51.5t53 21.5h64q10 0 17 6.5t7 16t-7 16.5t-17 7h-64q-51 0 -87 -35t-36 -84v-596q0 -49 36 -84t87 -35h552
q50 0 86 35t36 84v596q0 49 -36 84t-86 35zM378 702h267q10 0 17 7t7 16.5t-7 16.5t-17 7h-267q-10 0 -17 -7t-7 -16.5t7 -16.5t17 -7zM378 702z" />
    <glyph glyph-name="uniE665" unicode="&#xe665;" horiz-adv-x="1273" 
d="M636 288q108 0 185 77t77 185.5t-77 185t-185 76.5t-185 -76.5t-77 -185t77 -185.5t185 -77v0zM636 774q93 0 158.5 -65.5t65.5 -158t-65.5 -158.5t-158.5 -66t-158.5 66t-65.5 158.5t65.5 158t158.5 65.5v0zM1031 377q-55 0 -97 35q-6 5 -14 4t-13 -7t-4 -13.5t7 -12.5
q53 -43 121 -43q79 0 135 56t56 135t-56 135t-135 56q-68 0 -121 -43q-6 -5 -7 -12.5t4 -14t13 -7t14 4.5q42 34 97 34q63 0 108.5 -45t45.5 -108.5t-45.5 -108.5t-108.5 -45v0zM907 152q-19 32 -48.5 53.5t-55 30.5t-54 12.5t-40 3t-17.5 -0.5h-116q-6 0 -15.5 -0.5
t-33.5 -5t-45.5 -13.5t-48 -28.5t-45.5 -46.5q-25 -36 -58.5 -147t-53.5 -199q-1 -7 3 -14t11.5 -8.5t14 2.5t8.5 12q20 86 52 193.5t54 138.5q18 26 44 44t51.5 24t38 8t21.5 2h1h119q4 0 14.5 0.5t34 -2.5t45.5 -10t47 -25t40 -44q0 -1 1 -2l1 -1q23 -29 57.5 -136
t53.5 -190q4 -15 19 -15q2 0 4 1q7 1 11.5 8t2.5 14q-19 81 -54.5 192.5t-63.5 148.5v0zM241 340q69 0 121 43q6 5 7 12.5t-4 13.5t-12.5 7t-13.5 -4q-43 -35 -98 -35q-63 0 -108 45t-45 108.5t45 108.5t108 45q55 0 98 -35q6 -5 13.5 -4t12.5 7t4 14t-7 12q-52 44 -121 44
q-79 0 -135 -56.5t-56 -135.5q0 -78 56 -134t135 -56v0zM1272 75q-31 136 -60 180q-14 20 -33.5 34t-35 20.5t-34 10t-24 4t-11.5 0.5l-81 -1q-4 1 -12.5 1t-28 -2t-37.5 -7.5t-39.5 -20t-35.5 -34.5q-5 -7 -3.5 -14.5t8 -12t14 -3t12.5 7.5q37 53 120 48h84q2 1 18.5 -1
t43.5 -15t43 -37q26 -37 55 -166q3 -15 18 -15q2 0 4 1q8 1 12 7.5t3 14.5v0zM406 231q4 -7 11.5 -9t14.5 2t8.5 11.5t-2.5 14.5q-14 24 -35 40t-40.5 22.5t-39.5 9.5t-29.5 2.5t-12.5 -1.5h-82h-11q-6 0 -24.5 -3.5t-34 -10t-35 -21t-33.5 -34.5q-31 -43 -60 -179
q-2 -8 2 -14.5t12 -8.5h4q15 0 18 15q29 129 55 166q10 15 25 26t27 16t26 7.5t18.5 3t9.5 0.5h85q2 0 9.5 0.5t23 -1.5t31 -7t32.5 -17t27 -30v0zM406 231z" />
    <glyph glyph-name="uniE666" unicode="&#xe666;" horiz-adv-x="1025" 
d="M548 414q0 24 -28 24h-14v-48h14q28 0 28 24zM379 437h-1q0 -7 -2 -13l-17 -52h39l-16 52q-2 5 -3 13zM646 438h-14v-48h13q28 0 28 24t-27 24zM691 500v135q0 14 -10.5 24.5t-25.5 10.5h-286q-15 0 -25.5 -10.5t-10.5 -24.5v-135h-66v-223h66v-144q0 -14 10.5 -24.5
t25.5 -10.5h286q15 0 25.5 10.5t10.5 24.5v144h66v223h-66zM369 626h286v-126h-286v126zM526 463q55 0 55 -48q0 -22 -16.5 -36t-41.5 -13h-17v-52h-31v149h51zM352 348l-11 -34h-35l55 149h37l54 -149h-35l-11 34h-54zM512.5 116q-7.5 0 -13 5t-5.5 12.5t5.5 12.5t13 5
t12.5 -5t5 -12.5t-5 -12.5t-12.5 -5zM655 169h-286v108h286v-108zM690 379q-17 -14 -42 -13h-16v-52h-32v149h51q56 0 56 -48q0 -22 -17 -36zM489 -109zM512 896q-104 0 -199 -40.5t-163.5 -109t-109 -163.5t-40.5 -199t40.5 -199t109 -163.5t163.5 -109t199 -40.5t199 40.5
t163.5 109t109 163.5t40.5 199t-40.5 199t-109 163.5t-163.5 109t-199 40.5zM512 -103q-99 0 -189 38.5t-155.5 104t-104 155.5t-38.5 189t38.5 189t104 155.5t155.5 104t189 38.5t189 -38.5t155.5 -104t104 -155.5t38.5 -189t-38.5 -189t-104 -155.5t-155.5 -104
t-189 -38.5zM512 -103z" />
    <glyph glyph-name="uniE667" unicode="&#xe667;" 
d="M510 896q-104 0 -198 -40.5t-162 -108.5t-108.5 -162t-40.5 -197.5t40.5 -197.5t108.5 -162.5t162 -108.5t197.5 -40t197.5 40t162.5 108.5t108.5 162.5t40 197.5t-40 197.5t-108.5 162t-162.5 108.5t-197 40.5zM510 -79q-95 0 -181.5 37t-149 99.5t-99 149t-36.5 181
t36.5 181t99 149t149 99.5t181 37t181 -37t149 -99.5t99.5 -149t37 -181t-37 -181t-99.5 -149t-149 -99.5t-180.5 -37zM510 -79zM657 701h-283q-19 0 -32.5 -12.5t-13.5 -30.5v-538q0 -18 13.5 -31t32.5 -13h283q19 0 32.5 13t13.5 31v538q0 18 -13.5 30.5t-32.5 12.5v0v0z
M508 94q-9 0 -16 6.5t-7 15.5t7 15t16.5 6t16 -6t6.5 -15t-6.5 -15.5t-16.5 -6.5v0v0zM676 156h-322v517h322v-517zM676 156z" />
    <glyph glyph-name="uniE668" unicode="&#xe668;" 
d="M512 -212q-104 0 -199 40.5t-163.5 109t-109 163.5t-40.5 199t40.5 199t109 163.5t163.5 109t199 40.5t199 -40.5t163.5 -109t109 -163.5t40.5 -199t-40.5 -199t-109 -163.5t-163.5 -109t-199 -40.5zM512 779q-97 0 -186 -38t-153 -102t-102 -153t-38 -186t38 -186
t102 -153t153 -102t186 -38t186 38t153 102t102 153t38 186t-38 186t-102 153t-153 102t-186 38zM518 -1q-7 0 -11.5 5t-4.5 12v133q0 7 4.5 12t11.5 5t12 -5t5 -12v-133q0 -7 -5 -12t-12 -5zM679 -9h-322q-7 0 -11.5 5t-4.5 12t4.5 11.5t11.5 4.5h322q7 0 12 -4.5t5 -11.5
t-5 -12t-12 -5zM802 145h-568q-6 0 -11 5t-5 12v372q0 6 5 11t11 5h568q7 0 11.5 -5t4.5 -11v-372q0 -7 -4.5 -12t-11.5 -5zM251 178h535v339h-535v-339z" />
    <glyph glyph-name="uniE669" unicode="&#xe669;" 
d="M866 -150h-706q-37 0 -73.5 27t-36.5 64v706q0 36 36 61t74 25h288v-44h-288q-21 0 -44 -13.5t-23 -28.5v-706q0 -15 22.5 -31.5t44.5 -16.5h706q6 0 10 2t8.5 13t4.5 33v304h44v-304q0 -91 -67 -91zM351 48h-44q0 268 145 397q168 150 505 111l-5 -43q-315 37 -471 -101
q-66 -59 -98 -146.5t-32 -217.5zM783 334l-32 31l172 172l-172 183l32 30l202 -214z" />
    <glyph glyph-name="uniE66A" unicode="&#xe66a;" 
d="M512 -211q-104 0 -199 40q-92 39 -162.5 110t-109.5 162q-40 95 -40 199.5t40 199.5q39 91 109.5 162t162.5 110q95 40 199 40t199 -40q92 -39 162.5 -110t109.5 -162q40 -95 40 -199t-40 -200q-39 -91 -109.5 -162t-162.5 -110q-95 -40 -199 -40zM512 777
q-97 0 -185 -37q-86 -37 -152 -102.5t-102 -151.5q-37 -89 -37 -185.5t37 -185.5q36 -85 102 -151t152 -102q88 -38 185 -38t185 38q86 36 152 102t102 151q37 89 37 186t-37 185q-36 86 -102 151.5t-152 102.5q-88 37 -185 37zM608 247q23 43 41.5 90t24.5 72l6 26h-9h-82
h-87v68h212v29h-212v101h-97v-101h-192v-29h192v-68h-164v-29h333q0 -3 -8 -26.5t-19.5 -54.5t-20.5 -49q-36 14 -69 24.5t-59 16.5t-50 9.5t-41.5 4.5t-34.5 -0.5t-27 -3.5t-21.5 -6t-16 -6t-11.5 -6t-8 -4q-46 -33 -63 -71.5t-9 -70.5t24.5 -59t35.5 -41.5t27 -13.5
q216 -48 361 126q5 -5 15 -5q24 -13 101 -50.5t142 -68.5l66 -31v145q-7 0 -16.5 1.5t-23.5 5t-27 7t-33 9.5t-34 10.5t-37.5 12.5t-36.5 12t-38 12.5t-34 11.5zM483 204q-34 -44 -74.5 -70t-72.5 -34t-65.5 -7t-49.5 5t-28 9q-21 6 -35 26t-16.5 44t9.5 48.5t37 36.5
q43 13 86.5 14.5t83.5 -8.5t69.5 -21t64.5 -29z" />
    <glyph glyph-name="uniE66B" unicode="&#xe66b;" 
d="M944 -135q-10 0 -16 6l-864 864q-7 7 -7 17.5t7 18t16 7.5t16 -8l864 -864q7 -7 7 -17.5t-7 -17.5q-6 -6 -16 -6zM80 -135q-10 0 -16 6q-7 7 -7 17.5t7 17.5l864 864q16 16 32 0q7 -7 7 -17.5t-7 -17.5l-864 -864q-6 -6 -16 -6z" />
    <glyph glyph-name="uniE66C" unicode="&#xe66c;" 
d="M512 812q-139 0 -257 -68.5t-186.5 -186.5t-68.5 -257t68.5 -257t186.5 -186.5t257 -68.5t257 68.5t186.5 186.5t68.5 257t-68.5 257t-186.5 186.5t-257 68.5zM731 121l-40 -40l-179 179l-179 -179l-40 40l179 179l-179 179l40 40l179 -179l179 179l40 -40l-179 -179z
" />
    <glyph glyph-name="uniE66D" unicode="&#xe66d;" 
d="M352 461h322v-35h-322v35zM352 343h322v-35h-322v35zM352 224h214v-35h-214v35zM238 -66l40 133q-66 51 -104 110q-45 71 -45 145q0 67 32 129q30 58 84 104q53 45 122 70q70 26 144 26q159 0 271 -96q53 -45 82 -105q30 -61 30 -128.5t-30 -128.5q-29 -59 -82 -104
q-112 -96 -271 -96q-45 0 -127 21zM511 620q-94 0 -175 -40.5t-129 -109.5t-48 -148q0 -62 37.5 -123t108.5 -114l8 -6l-24 -82l90 49l6 -1q84 -21 126 -21q96 0 177 40t128 108.5t47 149.5t-47 149.5t-128 108.5t-177 40z" />
    <glyph glyph-name="uniE66E" unicode="&#xe66e;" 
d="M399 744h-272q-18 0 -31 -13t-13 -32v-299q0 -20 14.5 -36.5t31.5 -16.5h277q18 0 32 13.5t14 32.5v305q0 17 -16.5 31.5t-36.5 14.5zM406 393h-277v305h277v-305zM406 255h-277q-18 0 -32 -14.5t-14 -32.5v-299q0 -19 14.5 -35t31.5 -16h277q16 0 31 21t15 41v290
q0 18 -14 31.5t-32 13.5zM406 -96h-277v306h277v-306zM605 347h261q17 0 31.5 17t14.5 36v299q0 19 -12.5 32t-31.5 13h-272q-18 0 -35 -14t-17 -32v-305q0 -17 20.5 -31.5t40.5 -14.5zM590 698h276v-305h-276v305zM931 -92l-50 49l7 11q37 56 30 124t-54 116
q-56 56 -134 56t-133.5 -56t-55.5 -135t55.5 -135t133.5 -56q57 0 104 31l11 8l50 -57q7 -6 17.5 -6t18.5 7q7 8 7 21.5t-7 21.5zM827.5 -25.5q-40.5 -40.5 -97.5 -40.5t-97.5 40.5t-40.5 98t40.5 98.5t97.5 41t97.5 -41t40.5 -98.5t-40.5 -98z" />
  </font>
</defs>
</svg>
